<svg width="112" height="34" viewBox="0 0 112 34" fill="none" xmlns="http://www.w3.org/2000/svg">
<rect width="112" height="34" rx="4" fill="#81D7D4"/>
<path d="M21.7666 14.7031C21.5557 13.2969 20.4658 12.4355 18.9893 12.4355C17.0029 12.4355 15.7021 13.9648 15.7021 16.6367C15.7021 19.3789 17.0205 20.8379 18.9717 20.8379C20.4307 20.8379 21.5029 20.0293 21.7666 18.6582L24.4385 18.6758C24.1396 21.0312 22.1709 23.1758 18.9365 23.1758C15.5264 23.1758 13.0127 20.7852 13.0127 16.6367C13.0127 12.4883 15.5791 10.0977 18.9365 10.0977C21.8721 10.0977 24.0869 11.7852 24.4385 14.7031H21.7666ZM26.2314 23V13.4551H28.7451V15.1074H28.8506C29.2021 13.9297 30.0811 13.3145 31.1533 13.3145C31.417 13.3145 31.751 13.3496 31.9795 13.4023V15.7227C31.7334 15.6523 31.2412 15.582 30.8721 15.582C29.6943 15.582 28.833 16.4082 28.833 17.5684V23H26.2314ZM37.2705 23.1934C34.3525 23.1934 32.5596 21.2949 32.5596 18.2715C32.5596 15.3184 34.3701 13.332 37.165 13.332C39.6787 13.332 41.6475 14.9141 41.6475 18.166V18.9043H35.126C35.126 20.3457 35.9873 21.2422 37.3232 21.2422C38.2021 21.2422 38.835 20.8555 39.0986 20.2754H41.5771C41.208 22.0332 39.626 23.1934 37.2705 23.1934ZM35.126 17.2695H39.1865C39.1865 16.1094 38.3779 15.2832 37.2178 15.2832C36.0225 15.2832 35.1699 16.1709 35.126 17.2695ZM46.7979 23.1582C44.6182 23.1582 42.9131 21.418 42.9131 18.2363C42.9131 14.9668 44.6885 13.332 46.7979 13.332C48.3975 13.332 49.1533 14.2812 49.5049 15.0547H49.5928V10.2734H52.1943V23H49.6279V21.4707H49.5049C49.1357 22.2617 48.3447 23.1582 46.7979 23.1582ZM47.6064 21.084C48.9072 21.084 49.6455 19.9414 49.6455 18.2188C49.6455 16.4961 48.9072 15.4062 47.6064 15.4062C46.2881 15.4062 45.585 16.5488 45.585 18.2188C45.585 19.9062 46.2881 21.084 47.6064 21.084ZM54.2861 23V13.4551H56.8877V23H54.2861ZM55.5869 12.207C54.7959 12.207 54.1631 11.6094 54.1631 10.8887C54.1631 10.1504 54.7959 9.55273 55.5869 9.55273C56.3604 9.55273 56.9932 10.1504 56.9932 10.8887C56.9932 11.6094 56.3604 12.207 55.5869 12.207ZM63.9365 13.4551V15.4062H62.1436V20.0645C62.1436 20.8203 62.5127 21.0137 63.04 21.0312C63.3037 21.0312 63.7607 21.0137 64.0771 20.9785V23.0352C63.7959 23.0879 63.3389 23.123 62.6885 23.123C60.8076 23.123 59.5244 22.2793 59.542 20.4336V15.4062H58.2236V13.4551H59.542V11.1699H62.1436V13.4551H63.9365ZM83.7646 16.3203V18.0781H77.5771V19.2207C80.3896 19.4053 82.0068 20.3281 82.0244 21.8926C82.0068 23.668 79.9502 24.6172 76.4521 24.6172C72.9365 24.6172 70.8447 23.668 70.8447 21.8926C70.8447 20.3281 72.5059 19.4053 75.3447 19.2207V18.0781H69.1748V16.3203H83.7646ZM77.5596 8.67383V10.0449H82.3584V11.8203H77.7705C78.1133 12.9189 79.7568 13.8857 83.1143 14.1055L82.4463 15.8105C79.4932 15.5996 77.4541 14.7383 76.4521 13.4375C75.4414 14.7383 73.4023 15.5996 70.4756 15.8105L69.79 14.1055C73.1475 13.8857 74.7734 12.9189 75.1338 11.8203H70.5811V10.0449H75.3447V8.67383H77.5596ZM76.4521 20.8379C74.2197 20.8379 73.1123 21.1719 73.1299 21.8926C73.1123 22.6309 74.2197 22.9648 76.4521 22.9648C78.6318 22.9648 79.7568 22.6309 79.7744 21.8926C79.7568 21.1719 78.6318 20.8379 76.4521 20.8379ZM98.2139 8.63867V20.3105H95.9814V14.5801H93.3623V12.7695H95.9814V8.63867H98.2139ZM98.6006 22.543V24.3359H87.5967V19.291H89.8467V22.543H98.6006ZM90.7783 11.7676C90.7783 13.6133 91.9033 15.5996 94.4521 16.4258L93.3447 18.2012C91.5693 17.6299 90.3564 16.4609 89.6533 15.002C88.9502 16.6191 87.6758 17.9023 85.7861 18.5352L84.6436 16.707C87.2803 15.8809 88.4756 13.7891 88.4932 11.75V11.5039H85.2764V9.71094H93.96V11.5039H90.7783V11.7676Z" fill="white"/>
</svg>
