<svg width="32" height="32" viewBox="0 0 32 32" fill="none" xmlns="http://www.w3.org/2000/svg">
<circle cx="16" cy="16" r="16" fill="#898989"/>
<path d="M16 8.75C16.69 8.75 17.25 9.31 17.25 10V14.75H22C22.3315 14.75 22.6495 14.8817 22.8839 15.1161C23.1183 15.3505 23.25 15.6685 23.25 16C23.25 16.3315 23.1183 16.6495 22.8839 16.8839C22.6495 17.1183 22.3315 17.25 22 17.25H17.25V22C17.25 22.3315 17.1183 22.6495 16.8839 22.8839C16.6495 23.1183 16.3315 23.25 16 23.25C15.6685 23.25 15.3505 23.1183 15.1161 22.8839C14.8817 22.6495 14.75 22.3315 14.75 22V17.25H10C9.66848 17.25 9.35054 17.1183 9.11612 16.8839C8.8817 16.6495 8.75 16.3315 8.75 16C8.75 15.6685 8.8817 15.3505 9.11612 15.1161C9.35054 14.8817 9.66848 14.75 10 14.75H14.75V10C14.75 9.31 15.31 8.75 16 8.75Z" fill="white"/>
</svg>
