<svg width="40" height="40" viewBox="0 0 40 40" fill="none" xmlns="http://www.w3.org/2000/svg">
<g filter="url(#filter0_d_4653_15812)">
<rect x="3" y="3" width="32" height="32" rx="4" fill="#81D7D4"/>
</g>
<path d="M18.9987 11.1458C19.7462 11.1458 20.3529 11.7524 20.3529 12.4999V17.6458H25.4987C25.8579 17.6458 26.2023 17.7884 26.4563 18.0424C26.7102 18.2964 26.8529 18.6408 26.8529 18.9999C26.8529 19.3591 26.7102 19.7035 26.4563 19.9575C26.2023 20.2114 25.8579 20.3541 25.4987 20.3541H20.3529V25.5C20.3529 25.8591 20.2102 26.2036 19.9563 26.4575C19.7023 26.7115 19.3579 26.8541 18.9987 26.8541C18.6396 26.8541 18.2951 26.7115 18.0412 26.4575C17.7872 26.2036 17.6446 25.8591 17.6446 25.5V20.3541H12.4987C12.1396 20.3541 11.7951 20.2114 11.5412 19.9575C11.2872 19.7035 11.1445 19.3591 11.1445 18.9999C11.1445 18.6408 11.2872 18.2964 11.5412 18.0424C11.7951 17.7884 12.1396 17.6458 12.4987 17.6458H17.6446V12.4999C17.6446 11.7524 18.2512 11.1458 18.9987 11.1458Z" fill="white"/>
<defs>
<filter id="filter0_d_4653_15812" x="0" y="0" width="40" height="40" filterUnits="userSpaceOnUse" color-interpolation-filters="sRGB">
<feFlood flood-opacity="0" result="BackgroundImageFix"/>
<feColorMatrix in="SourceAlpha" type="matrix" values="0 0 0 0 0 0 0 0 0 0 0 0 0 0 0 0 0 0 127 0" result="hardAlpha"/>
<feOffset dx="1" dy="1"/>
<feGaussianBlur stdDeviation="2"/>
<feComposite in2="hardAlpha" operator="out"/>
<feColorMatrix type="matrix" values="0 0 0 0 0 0 0 0 0 0 0 0 0 0 0 0 0 0 0.1 0"/>
<feBlend mode="normal" in2="BackgroundImageFix" result="effect1_dropShadow_4653_15812"/>
<feBlend mode="normal" in="SourceGraphic" in2="effect1_dropShadow_4653_15812" result="shape"/>
</filter>
</defs>
</svg>
