<svg width="24" height="24" viewBox="0 0 24 24" fill="none" xmlns="http://www.w3.org/2000/svg">
<g clip-path="url(#clip0_5039_19776)">
<path d="M8.17001 2.76C9.38508 2.25995 10.6861 2.00179 12 2C13.31 2 14.61 2.26 15.83 2.76C17.04 3.26 18.14 4 19.07 4.93C20 5.86 20.74 6.96 21.24 8.17C21.74 9.39 22 10.69 22 12C22 14.65 20.95 17.2 19.07 19.07C18.1426 20 17.0406 20.7376 15.8273 21.2404C14.614 21.7432 13.3134 22.0014 12 22C10.6861 21.9982 9.38508 21.7401 8.17001 21.24C6.95807 20.7363 5.85714 19.9989 4.93001 19.07C4.00002 18.1426 3.26244 17.0406 2.75962 15.8273C2.2568 14.614 1.99865 13.3134 2.00001 12C2.00001 9.35 3.05001 6.8 4.93001 4.93C5.86001 4 6.96001 3.26 8.17001 2.76ZM12 17L13.56 13.58L17 12L13.56 10.44L12 7L10.43 10.44L7.00001 12L10.43 13.58L12 17Z" fill="#FFD86D"/>
<rect width="24" height="24" fill="#D9D9D9"/>
</g>
<defs>
<clipPath id="clip0_5039_19776">
<rect width="24" height="24" fill="white"/>
</clipPath>
</defs>
</svg>
