<svg width="317" height="38" viewBox="0 0 317 38" fill="none" xmlns="http://www.w3.org/2000/svg">
<rect x="0.5" width="316" height="38" rx="8" fill="#BAE5E4"/>
<path d="M23.9902 25H21.1426L25.5547 12.2734H28.9473L33.3418 25H30.5117L29.5625 22.0645H24.957L23.9902 25ZM25.625 20.0078H28.8945L27.2949 15.1387H27.207L25.625 20.0078ZM37.4199 12.2734V25H34.7832V12.2734H37.4199ZM49.3203 14.9805C49.3203 17.5645 50.6387 20.3242 53.3281 21.4492L52.1152 23.207C50.2256 22.4072 48.9248 20.8164 48.2129 18.8652C47.4834 20.9834 46.1562 22.7412 44.2754 23.6113L42.9922 21.8359C45.6465 20.6582 47.0176 17.6875 47.0176 14.9805V13.9961H43.625V12.168H52.6602V13.9961H49.3203V14.9805ZM56.5098 10.6211V26.6172H54.2422V10.6211H56.5098ZM72.2246 10.6387V22.7148H69.9746V21.4492H66.916V19.9199H69.9746V10.6387H72.2246ZM72.5762 24.543V26.3359H60.6582V21.5547H62.8906V19.4277C61.458 19.4893 60.0957 19.498 58.8828 19.498L58.6191 17.7227C61.5547 17.7051 65.5098 17.6699 68.8848 17.248L69.0078 18.8477C67.7422 19.0586 66.4326 19.208 65.1406 19.3047V22.3457H62.8906V24.543H72.5762ZM63.8223 11.1836C66.1426 11.166 67.8125 12.3438 67.8125 14.0488C67.8125 15.7539 66.1426 16.8613 63.8223 16.8613C61.4492 16.8613 59.7969 15.7539 59.7969 14.0488C59.7969 12.3438 61.4316 11.166 63.8223 11.1836ZM63.8223 12.8184C62.6797 12.8184 61.9062 13.2578 61.9238 14.0488C61.9062 14.8223 62.6797 15.2441 63.8223 15.2441C64.8945 15.2441 65.668 14.8223 65.6855 14.0488C65.668 13.2578 64.8945 12.8184 63.8223 12.8184ZM86.5332 11.6582V18.6719H78.8516V11.6582H86.5332ZM81.0664 13.4336V16.8965H84.3184V13.4336H81.0664ZM91.0684 10.6211V14.1016H93.2305V15.9297H91.0684V19.5859H88.8184V10.6211H91.0684ZM91.2617 20.3418V22.1172H87.166C87.5439 23.3125 89.126 24.499 91.9648 24.877L91.1738 26.582C88.6074 26.2393 86.7969 25.2109 85.8828 23.8398C84.96 25.2109 83.1582 26.2217 80.6094 26.5469L79.8008 24.8418C82.6836 24.4902 84.2305 23.3477 84.5996 22.1172H80.4863V20.3418H91.2617ZM108.523 18.3027V20.0781H102.318V21.3086H106.783V26.4414H95.6211V21.3086H100.104V20.0781H93.9336V18.3027H108.523ZM102.318 10.6211V11.9922H107.117V13.75H102.512C102.784 14.8574 104.419 15.8506 107.873 16.0527L107.223 17.7051C104.261 17.5029 102.213 16.6943 101.211 15.4375C100.2 16.6943 98.1523 17.5029 95.1992 17.7051L94.5488 16.0527C98.0293 15.8506 99.6289 14.8574 99.9277 13.75H95.3398V11.9922H100.104V10.6211H102.318ZM97.8359 23.084V24.6484H104.586V23.084H97.8359ZM128.281 22.9609V24.8418H113.639V22.9609H119.791V20.0781H114.852V18.3203H116.996V13.75H114.781V11.957H127.051V13.75H124.801V18.3203H126.98V20.0781H122.023V22.9609H128.281ZM119.246 18.3203H122.586V13.75H119.246V18.3203ZM142.238 18.8828V20.6582H130.918V11.7988H142.115V13.6094H133.203V15.2969H141.746V17.0547H133.203V18.8828H142.238ZM143.838 22.9258V24.7539H129.195V22.9258H143.838ZM158.041 11.0078V12.6602H155.949V14.7695H157.936V16.4395H153.154V17.4414H159.342V19.1816H144.752V17.4414H150.904V16.4395H146.141V14.7695H148.109V12.6602H146.035V11.0078H158.041ZM157.566 20.0254V23.9453H148.654V24.8594H157.988V26.5117H146.457V22.4336H155.352V21.625H146.439V20.0254H157.566ZM150.359 14.7695H153.699V12.6602H150.359V14.7695ZM173.721 10.6211V26.6523H171.488V10.6211H173.721ZM168.764 11.957V18.127H163.49V21.0625C165.925 21.0537 167.999 20.9131 170.346 20.5352L170.539 22.3457C167.902 22.8027 165.529 22.9082 162.611 22.9082H161.17V16.3516H166.479V13.7676H161.152V11.957H168.764ZM183.16 11.4473C186.605 11.4473 189.172 13.1875 189.189 15.8242C189.172 18.2324 187.142 19.8584 184.268 20.1836V22.9082H190.508V24.7539H175.865V22.9082H182.035V20.166C179.17 19.8584 177.148 18.2236 177.148 15.8242C177.148 13.1875 179.715 11.4473 183.16 11.4473ZM183.16 13.2402C180.928 13.2402 179.363 14.2246 179.363 15.8242C179.363 17.5117 180.928 18.4609 183.16 18.4609C185.41 18.4609 186.957 17.5117 186.975 15.8242C186.957 14.2246 185.41 13.2402 183.16 13.2402ZM200.686 13.4688C200.686 15.1914 201.582 16.9141 203.709 17.7227L202.514 19.4277C201.151 18.9092 200.211 17.96 199.631 16.7734C199.051 18.1621 198.049 19.3223 196.555 19.9375L195.342 18.2148C197.592 17.2305 198.506 15.2617 198.506 13.4688V11.5879H200.686V13.4688ZM209.316 10.6387V20.4121H207.189V16.3516H205.854V19.9199H203.762V10.9199H205.854V14.541H207.189V10.6387H209.316ZM203.85 20.6406C207.225 20.6406 209.387 21.7656 209.404 23.6289C209.387 25.4922 207.225 26.6172 203.85 26.6172C200.457 26.6172 198.312 25.4922 198.312 23.6289C198.312 21.7656 200.457 20.6406 203.85 20.6406ZM203.85 22.3105C201.758 22.3105 200.545 22.7676 200.562 23.6289C200.545 24.4902 201.758 24.9297 203.85 24.9297C205.924 24.9297 207.137 24.4902 207.137 23.6289C207.137 22.7676 205.924 22.3105 203.85 22.3105ZM217.174 12.8008C217.156 14.9453 218.264 16.9141 220.83 17.7051L219.652 19.4629C217.93 18.8652 216.761 17.7578 216.102 16.3164C215.381 17.9863 214.089 19.3047 212.164 19.9551L210.986 18.1621C213.729 17.2832 214.889 15.1387 214.906 12.9062V11.4473H217.174V12.8008ZM224.609 10.6211V19.9902H222.377V15.3848H219.371V13.5566H222.377V10.6211H224.609ZM219.143 20.4121C222.553 20.4121 224.645 21.5547 224.662 23.5234C224.645 25.4922 222.553 26.6172 219.143 26.6172C215.732 26.6172 213.641 25.4922 213.641 23.5234C213.641 21.5547 215.732 20.4121 219.143 20.4121ZM219.143 22.1523C217.016 22.1523 215.873 22.6094 215.873 23.5234C215.873 24.4023 217.016 24.877 219.143 24.877C221.27 24.877 222.43 24.4023 222.43 23.5234C222.43 22.6094 221.27 22.1523 219.143 22.1523Z" fill="white"/>
<circle cx="259" cy="19.5" r="6.5" fill="white"/>
<path d="M254.67 9.76C255.885 9.25995 257.186 9.00179 258.5 9C259.81 9 261.11 9.26 262.33 9.76C263.54 10.26 264.64 11 265.57 11.93C266.5 12.86 267.24 13.96 267.74 15.17C268.24 16.39 268.5 17.69 268.5 19C268.5 21.65 267.45 24.2 265.57 26.07C264.643 27 263.541 27.7376 262.327 28.2404C261.114 28.7432 259.813 29.0014 258.5 29C257.186 28.9982 255.885 28.7401 254.67 28.24C253.458 27.7363 252.357 26.9989 251.43 26.07C250.5 25.1426 249.762 24.0406 249.26 22.8273C248.757 21.614 248.499 20.3134 248.5 19C248.5 16.35 249.55 13.8 251.43 11.93C252.36 11 253.46 10.26 254.67 9.76ZM258.5 24L260.06 20.58L263.5 19L260.06 17.44L258.5 14L256.93 17.44L253.5 19L256.93 20.58L258.5 24Z" fill="#FFD86D"/>
<path d="M283.274 12.2734V25H280.62V14.7871H280.55L277.632 16.6152V14.2773L280.778 12.2734H283.274ZM286.228 25L286.21 23.084L290.78 18.8828C291.976 17.7402 292.608 17.0371 292.608 16.0352C292.608 14.9102 291.747 14.207 290.587 14.207C289.392 14.207 288.618 14.9629 288.618 16.1758H286.104C286.087 13.6797 287.933 12.0977 290.622 12.0977C293.347 12.0977 295.157 13.6445 295.157 15.8594C295.157 17.3008 294.454 18.4961 291.835 20.8691L289.901 22.75V22.8203H295.333V25H286.228Z" fill="white"/>
</svg>
