<svg width="1122" height="138" viewBox="0 0 1122 138" fill="none" xmlns="http://www.w3.org/2000/svg">
<g filter="url(#filter0_d_5415_24672)">
<path d="M1107 106.997C1107 115.834 1099.84 122.997 1091 122.997L69.0019 122.997C60.1654 122.997 53.0019 115.834 53.0019 106.997L53.0019 96.9642C53.0019 94.2415 47.3771 91.1541 45.0186 89.7939L18.0068 74.2148C14.0056 71.9068 14.0013 66.1342 17.999 63.8232L44.9883 48.2246C47.3367 46.8673 53.002 43.7516 53.002 41.0392L53.002 30.997C53.002 22.1605 60.1654 14.997 69.002 14.997L1091 14.9971C1099.84 14.9971 1107 22.1605 1107 30.9971L1107 106.997Z" fill="white"/>
</g>
<defs>
<filter id="filter0_d_5415_24672" x="0.00390625" y="-0.00292969" width="1122" height="138" filterUnits="userSpaceOnUse" color-interpolation-filters="sRGB">
<feFlood flood-opacity="0" result="BackgroundImageFix"/>
<feColorMatrix in="SourceAlpha" type="matrix" values="0 0 0 0 0 0 0 0 0 0 0 0 0 0 0 0 0 0 127 0" result="hardAlpha"/>
<feOffset/>
<feGaussianBlur stdDeviation="7.5"/>
<feComposite in2="hardAlpha" operator="out"/>
<feColorMatrix type="matrix" values="0 0 0 0 0 0 0 0 0 0 0 0 0 0 0 0 0 0 0.1 0"/>
<feBlend mode="normal" in2="BackgroundImageFix" result="effect1_dropShadow_5415_24672"/>
<feBlend mode="normal" in="SourceGraphic" in2="effect1_dropShadow_5415_24672" result="shape"/>
</filter>
</defs>
</svg>
