<svg width="32" height="32" viewBox="0 0 32 32" fill="none" xmlns="http://www.w3.org/2000/svg">
<path d="M19.2922 24.7085C19.199 24.6156 19.1252 24.5052 19.0747 24.3837C19.0243 24.2622 18.9984 24.132 18.9984 24.0005C18.9984 23.8689 19.0243 23.7387 19.0747 23.6172C19.1252 23.4957 19.199 23.3854 19.2922 23.2925L24.5862 18.0005L15.0002 18.0005C12.0828 18.0005 9.28489 16.8415 7.22199 14.7786C5.15909 12.7157 4.00016 9.91785 4.00016 7.00047C4.00016 6.73525 4.10552 6.4809 4.29306 6.29336C4.48059 6.10583 4.73495 6.00047 5.00017 6.00047C5.26538 6.00047 5.51974 6.10583 5.70727 6.29336C5.89481 6.4809 6.00017 6.73525 6.00017 7.00047C6.00017 9.38742 6.94838 11.6766 8.6362 13.3644C10.324 15.0523 12.6132 16.0005 15.0002 16.0005L24.5862 16.0005L19.2922 10.7085C19.1992 10.6155 19.1254 10.5051 19.0751 10.3836C19.0248 10.2622 18.9989 10.132 18.9989 10.0005C18.9989 9.86898 19.0248 9.73878 19.0751 9.6173C19.1254 9.49583 19.1992 9.38545 19.2922 9.29247C19.3851 9.1995 19.4955 9.12574 19.617 9.07543C19.7385 9.02511 19.8687 8.99921 20.0002 8.99921C20.1317 8.99921 20.2619 9.02511 20.3833 9.07543C20.5048 9.12574 20.6152 9.1995 20.7082 9.29247L27.7082 16.2925C27.8013 16.3854 27.8752 16.4957 27.9256 16.6172C27.976 16.7387 28.002 16.8689 28.002 17.0005C28.002 17.132 27.976 17.2622 27.9256 17.3837C27.8752 17.5052 27.8013 17.6156 27.7082 17.7085L20.7082 24.7085C20.6153 24.8016 20.5049 24.8755 20.3834 24.9259C20.2619 24.9763 20.1317 25.0023 20.0002 25.0023C19.8686 25.0023 19.7384 24.9763 19.6169 24.9259C19.4954 24.8755 19.3851 24.8016 19.2922 24.7085Z" fill="#505050"/>
</svg>
