<svg width="28" height="28" viewBox="0 0 28 28" fill="none" xmlns="http://www.w3.org/2000/svg">
<path d="M10 3C10.8297 3 11.5 3.61445 11.5 4.375V5.75H17.5V4.375C17.5 3.61445 18.1703 3 19 3C19.8297 3 20.5 3.61445 20.5 4.375V5.75H22.75C23.9922 5.75 25 6.67383 25 7.8125V9.875H4V7.8125C4 6.67383 5.00781 5.75 6.25 5.75H8.5V4.375C8.5 3.61445 9.17031 3 10 3ZM4 11.25H25V22.9375C25 24.0762 23.9922 25 22.75 25H6.25C5.00781 25 4 24.0762 4 22.9375V11.25ZM7 14.6875V16.0625C7 16.4406 7.3375 16.75 7.75 16.75H9.25C9.6625 16.75 10 16.4406 10 16.0625V14.6875C10 14.3094 9.6625 14 9.25 14H7.75C7.3375 14 7 14.3094 7 14.6875ZM13 14.6875V16.0625C13 16.4406 13.3375 16.75 13.75 16.75H15.25C15.6625 16.75 16 16.4406 16 16.0625V14.6875C16 14.3094 15.6625 14 15.25 14H13.75C13.3375 14 13 14.3094 13 14.6875ZM19.75 14C19.3375 14 19 14.3094 19 14.6875V16.0625C19 16.4406 19.3375 16.75 19.75 16.75H21.25C21.6625 16.75 22 16.4406 22 16.0625V14.6875C22 14.3094 21.6625 14 21.25 14H19.75ZM7 20.1875V21.5625C7 21.9406 7.3375 22.25 7.75 22.25H9.25C9.6625 22.25 10 21.9406 10 21.5625V20.1875C10 19.8094 9.6625 19.5 9.25 19.5H7.75C7.3375 19.5 7 19.8094 7 20.1875ZM13.75 19.5C13.3375 19.5 13 19.8094 13 20.1875V21.5625C13 21.9406 13.3375 22.25 13.75 22.25H15.25C15.6625 22.25 16 21.9406 16 21.5625V20.1875C16 19.8094 15.6625 19.5 15.25 19.5H13.75ZM19 20.1875V21.5625C19 21.9406 19.3375 22.25 19.75 22.25H21.25C21.6625 22.25 22 21.9406 22 21.5625V20.1875C22 19.8094 21.6625 19.5 21.25 19.5H19.75C19.3375 19.5 19 19.8094 19 20.1875Z" fill="#898989"/>
</svg>
