<svg width="36" height="36" viewBox="0 0 36 36" fill="none" xmlns="http://www.w3.org/2000/svg">
<rect width="36" height="36" rx="4" fill="#DAF3F3"/>
<path d="M15.9986 20L26.9986 9M15.9986 20L19.4986 27C19.5425 27.0957 19.6129 27.1769 19.7016 27.2338C19.7902 27.2906 19.8933 27.3209 19.9986 27.3209C20.1039 27.3209 20.207 27.2906 20.2957 27.2338C20.3843 27.1769 20.4547 27.0957 20.4986 27L26.9986 9M15.9986 20L8.99861 16.5C8.90286 16.4561 8.82173 16.3857 8.76485 16.2971C8.70797 16.2084 8.67773 16.1053 8.67773 16C8.67773 15.8947 8.70797 15.7916 8.76485 15.7029C8.82173 15.6143 8.90286 15.5439 8.99861 15.5L26.9986 9" stroke="#81D7D4" stroke-width="2" stroke-linecap="round" stroke-linejoin="round"/>
</svg>
