<svg width="32" height="32" viewBox="0 0 32 32" fill="none" xmlns="http://www.w3.org/2000/svg">
<rect width="32" height="32" rx="4" fill="#81D7D4"/>
<path d="M8.99609 17.75C8.75109 17.75 8.63034 17.75 8.52884 17.736C8.20808 17.6915 7.91062 17.5434 7.68163 17.3145C7.45264 17.0855 7.30464 16.788 7.26009 16.4673C7.24609 16.3675 7.24609 16.245 7.24609 16C7.24609 15.755 7.24609 15.6342 7.26009 15.5327C7.30464 15.212 7.45264 14.9145 7.68163 14.6855C7.91062 14.4566 8.20808 14.3085 8.52884 14.264C8.62859 14.25 8.75109 14.25 8.99609 14.25C9.24109 14.25 9.36184 14.25 9.46334 14.264C9.7841 14.3085 10.0816 14.4565 10.3106 14.6855C10.5395 14.9145 10.6875 15.212 10.7321 15.5327C10.7461 15.6325 10.7461 15.755 10.7461 16C10.7461 16.245 10.7461 16.3658 10.7321 16.4673C10.6875 16.788 10.5395 17.0855 10.3106 17.3145C10.0816 17.5434 9.78411 17.6915 9.46334 17.736C9.36359 17.75 9.24109 17.75 8.99609 17.75ZM15.9961 17.75C15.7511 17.75 15.6303 17.75 15.5288 17.736C15.2081 17.6915 14.9106 17.5434 14.6816 17.3145C14.4526 17.0855 14.3046 16.788 14.2601 16.4672C14.2461 16.3675 14.2461 16.245 14.2461 16C14.2461 15.755 14.2461 15.6342 14.2601 15.5327C14.3046 15.212 14.4526 14.9145 14.6816 14.6855C14.9106 14.4565 15.2081 14.3085 15.5288 14.264C15.6286 14.25 15.7511 14.25 15.9961 14.25C16.2411 14.25 16.3618 14.25 16.4633 14.264C16.7841 14.3085 17.0816 14.4565 17.3106 14.6855C17.5395 14.9145 17.6875 15.212 17.7321 15.5327C17.7461 15.6325 17.7461 15.755 17.7461 16C17.7461 16.245 17.7461 16.3657 17.7321 16.4672C17.6875 16.788 17.5395 17.0855 17.3106 17.3145C17.0816 17.5434 16.7841 17.6915 16.4633 17.736C16.3636 17.75 16.2411 17.75 15.9961 17.75ZM22.9961 17.75C22.7528 17.75 22.6303 17.75 22.5288 17.736C22.2087 17.6912 21.9118 17.5433 21.6832 17.3147C21.4546 17.0861 21.3067 16.7892 21.2618 16.469C21.2478 16.3657 21.2478 16.245 21.2478 16.0017C21.2478 15.7585 21.2478 15.6342 21.2618 15.5345C21.3067 15.2143 21.4546 14.9174 21.6832 14.6888C21.9118 14.4602 22.2087 14.3123 22.5288 14.2675C22.6303 14.2535 22.7528 14.2535 22.9961 14.2535C23.2393 14.2535 23.3618 14.2535 23.4633 14.2675C23.7835 14.3123 24.0804 14.4602 24.309 14.6888C24.5376 14.9174 24.6855 15.2143 24.7303 15.5345C24.7443 15.636 24.7443 15.7585 24.7443 16.0017C24.7443 16.245 24.7443 16.3675 24.7303 16.469C24.6855 16.7892 24.5376 17.0861 24.309 17.3147C24.0804 17.5433 23.7835 17.6912 23.4633 17.736C23.3618 17.75 23.2393 17.75 22.9961 17.75Z" fill="white"/>
</svg>
