<svg width="16" height="19" viewBox="0 0 16 19" fill="none" xmlns="http://www.w3.org/2000/svg">
<path d="M11.3065 16.3214V17.7277C11.3065 18.1937 10.9365 18.5714 10.48 18.5714H1.11266C0.656177 18.5714 0.286133 18.1937 0.286133 17.7277V4.79016C0.286133 4.32417 0.656177 3.94641 1.11266 3.94641H3.59226V14.3527C3.59226 15.4383 4.45739 16.3214 5.52083 16.3214H11.3065ZM11.3065 4.22766V0.571411H5.52083C5.06434 0.571411 4.6943 0.949165 4.6943 1.41516V14.3527C4.6943 14.8187 5.06434 15.1964 5.52083 15.1964H14.8882C15.3447 15.1964 15.7147 14.8187 15.7147 14.3527V5.07141H12.1331C11.6785 5.07141 11.3065 4.69172 11.3065 4.22766ZM15.4726 3.1368L13.2017 0.818524C13.0467 0.660301 12.8364 0.571412 12.6172 0.571411L12.4086 0.571411V3.94641H15.7147V3.7334C15.7147 3.50963 15.6276 3.29503 15.4726 3.1368Z" fill="#898989"/>
</svg>
