<svg width="338" height="40" viewBox="0 0 338 40" fill="none" xmlns="http://www.w3.org/2000/svg">
<rect x="1" y="1" width="336" height="38" rx="6" fill="#81D7D4"/>
<rect x="1" y="1" width="336" height="38" rx="6" stroke="#81D7D4"/>
<path d="M36.3027 26H33.4551L37.8672 13.2734H41.2598L45.6543 26H42.8242L41.875 23.0645H37.2695L36.3027 26ZM37.9375 21.0078H41.207L39.6074 16.1387H39.5195L37.9375 21.0078ZM49.7324 13.2734V26H47.0957V13.2734H49.7324ZM61.6328 15.9805C61.6328 18.5645 62.9512 21.3242 65.6406 22.4492L64.4277 24.207C62.5381 23.4072 61.2373 21.8164 60.5254 19.8652C59.7959 21.9834 58.4688 23.7412 56.5879 24.6113L55.3047 22.8359C57.959 21.6582 59.3301 18.6875 59.3301 15.9805V14.9961H55.9375V13.168H64.9727V14.9961H61.6328V15.9805ZM68.8223 11.6211V27.6172H66.5547V11.6211H68.8223ZM84.5371 11.6387V23.7148H82.2871V22.4492H79.2285V20.9199H82.2871V11.6387H84.5371ZM84.8887 25.543V27.3359H72.9707V22.5547H75.2031V20.4277C73.7705 20.4893 72.4082 20.498 71.1953 20.498L70.9316 18.7227C73.8672 18.7051 77.8223 18.6699 81.1973 18.248L81.3203 19.8477C80.0547 20.0586 78.7451 20.208 77.4531 20.3047V23.3457H75.2031V25.543H84.8887ZM76.1348 12.1836C78.4551 12.166 80.125 13.3438 80.125 15.0488C80.125 16.7539 78.4551 17.8613 76.1348 17.8613C73.7617 17.8613 72.1094 16.7539 72.1094 15.0488C72.1094 13.3438 73.7441 12.166 76.1348 12.1836ZM76.1348 13.8184C74.9922 13.8184 74.2188 14.2578 74.2363 15.0488C74.2188 15.8223 74.9922 16.2441 76.1348 16.2441C77.207 16.2441 77.9805 15.8223 77.998 15.0488C77.9805 14.2578 77.207 13.8184 76.1348 13.8184ZM98.8457 12.6582V19.6719H91.1641V12.6582H98.8457ZM93.3789 14.4336V17.8965H96.6309V14.4336H93.3789ZM103.381 11.6211V15.1016H105.543V16.9297H103.381V20.5859H101.131V11.6211H103.381ZM103.574 21.3418V23.1172H99.4785C99.8564 24.3125 101.438 25.499 104.277 25.877L103.486 27.582C100.92 27.2393 99.1094 26.2109 98.1953 24.8398C97.2725 26.2109 95.4707 27.2217 92.9219 27.5469L92.1133 25.8418C94.9961 25.4902 96.543 24.3477 96.9121 23.1172H92.7988V21.3418H103.574ZM120.836 19.3027V21.0781H114.631V22.3086H119.096V27.4414H107.934V22.3086H112.416V21.0781H106.246V19.3027H120.836ZM114.631 11.6211V12.9922H119.43V14.75H114.824C115.097 15.8574 116.731 16.8506 120.186 17.0527L119.535 18.7051C116.573 18.5029 114.525 17.6943 113.523 16.4375C112.513 17.6943 110.465 18.5029 107.512 18.7051L106.861 17.0527C110.342 16.8506 111.941 15.8574 112.24 14.75H107.652V12.9922H112.416V11.6211H114.631ZM110.148 24.084V25.6484H116.898V24.084H110.148ZM140.594 23.9609V25.8418H125.951V23.9609H132.104V21.0781H127.164V19.3203H129.309V14.75H127.094V12.957H139.363V14.75H137.113V19.3203H139.293V21.0781H134.336V23.9609H140.594ZM131.559 19.3203H134.898V14.75H131.559V19.3203ZM154.551 19.8828V21.6582H143.23V12.7988H154.428V14.6094H145.516V16.2969H154.059V18.0547H145.516V19.8828H154.551ZM156.15 23.9258V25.7539H141.508V23.9258H156.15ZM170.354 12.0078V13.6602H168.262V15.7695H170.248V17.4395H165.467V18.4414H171.654V20.1816H157.064V18.4414H163.217V17.4395H158.453V15.7695H160.422V13.6602H158.348V12.0078H170.354ZM169.879 21.0254V24.9453H160.967V25.8594H170.301V27.5117H158.77V23.4336H167.664V22.625H158.752V21.0254H169.879ZM162.672 15.7695H166.012V13.6602H162.672V15.7695ZM186.033 11.6211V27.6523H183.801V11.6211H186.033ZM181.076 12.957V19.127H175.803V22.0625C178.237 22.0537 180.312 21.9131 182.658 21.5352L182.852 23.3457C180.215 23.8027 177.842 23.9082 174.924 23.9082H173.482V17.3516H178.791V14.7676H173.465V12.957H181.076ZM195.473 12.4473C198.918 12.4473 201.484 14.1875 201.502 16.8242C201.484 19.2324 199.454 20.8584 196.58 21.1836V23.9082H202.82V25.7539H188.178V23.9082H194.348V21.166C191.482 20.8584 189.461 19.2236 189.461 16.8242C189.461 14.1875 192.027 12.4473 195.473 12.4473ZM195.473 14.2402C193.24 14.2402 191.676 15.2246 191.676 16.8242C191.676 18.5117 193.24 19.4609 195.473 19.4609C197.723 19.4609 199.27 18.5117 199.287 16.8242C199.27 15.2246 197.723 14.2402 195.473 14.2402ZM213.771 15.0312C213.771 16.7012 214.984 18.3359 217.551 19.0039L216.549 20.7441C214.703 20.2607 213.42 19.2412 212.682 17.9316C211.979 19.3643 210.704 20.4805 208.814 21.0254L207.76 19.2852C210.344 18.582 211.539 16.8242 211.539 15.0312V14.9785H208.322V13.2207H211.539V11.5508H213.807V13.2207H217.006V14.9785H213.771V15.0312ZM221.365 11.6211V20.9902H219.133V17.6328H216.602V15.8223H219.133V11.6211H221.365ZM221.365 21.6758V27.4414H210.607V21.6758H221.365ZM212.857 23.4688V25.6484H219.168V23.4688H212.857ZM229.346 14.1172C229.328 16.0508 230.453 17.9141 233.02 18.7227L231.912 20.4453C230.119 19.9004 228.906 18.7666 228.221 17.334C227.518 18.8721 226.27 20.0762 224.406 20.6562L223.281 18.8984C225.936 18.0723 227.078 16.0156 227.096 13.9238V12.4473H229.346V14.1172ZM236.131 11.6211V15.5234H238.293V17.4043H236.131V21.2891H233.881V11.6211H236.131ZM236.131 21.957V27.6172H233.881V23.7324H225.355V21.957H236.131ZM248.33 12.6934C250.861 12.6758 252.76 14.3281 252.76 16.6133C252.76 18.916 250.861 20.5508 248.33 20.5508C245.799 20.5508 243.883 18.916 243.883 16.6133C243.883 14.3281 245.799 12.6758 248.33 12.6934ZM248.33 14.627C247.064 14.627 246.098 15.3652 246.115 16.6133C246.098 17.8789 247.064 18.5996 248.33 18.5996C249.596 18.5996 250.562 17.8789 250.58 16.6133C250.562 15.3652 249.613 14.627 248.33 14.627ZM256.592 11.6211V27.6523H254.359V11.6211H256.592ZM243.215 22.5547C246.062 22.5723 250.018 22.5195 253.445 22.0449L253.621 23.6621C250.07 24.3477 246.273 24.3828 243.479 24.3828L243.215 22.5547ZM268.088 13.0098V17.7559H262.111V19.1445H268.457V20.8848H265.17V22.8711C266.471 22.8184 267.771 22.7393 269.002 22.6074L269.178 24.2422C265.68 24.8047 262.041 24.8223 259.035 24.7871L258.771 22.959C260.063 22.9678 261.47 22.9678 262.92 22.9414V20.8848H259.861V16.1387H265.873V14.7676H259.844V13.0098H268.088ZM272.148 11.6211V27.6523H269.916V11.6211H272.148ZM286.879 11.6211V17.8789H289.234V19.7246H286.879V27.6172H284.664V11.6211H286.879ZM283.574 14.0117V15.8047H274.17V14.0117H277.791V11.8672H280.041V14.0117H283.574ZM278.916 16.7012C281.254 16.7012 282.994 18.2832 282.994 20.5156C282.994 22.748 281.254 24.3301 278.916 24.3301C276.561 24.3301 274.82 22.748 274.82 20.5156C274.82 18.2832 276.561 16.7012 278.916 16.7012ZM278.916 18.5117C277.791 18.5293 276.965 19.2852 276.965 20.5156C276.965 21.7637 277.791 22.502 278.916 22.4844C280.041 22.502 280.85 21.7637 280.85 20.5156C280.85 19.2852 280.041 18.5293 278.916 18.5117ZM303.262 11.6211V27.6172H300.994V11.6211H303.262ZM298.463 13.291C298.463 18.1426 296.758 22.168 291.045 24.875L289.867 23.082C293.998 21.1309 295.817 18.5996 296.178 15.0488H290.729V13.291H298.463Z" fill="white"/>
</svg>
