<svg width="307" height="40" viewBox="0 0 307 40" fill="none" xmlns="http://www.w3.org/2000/svg">
<rect x="1" y="1" width="305" height="38" rx="6" fill="#81D7D4"/>
<rect x="1" y="1" width="305" height="38" rx="6" stroke="#81D7D4"/>
<path d="M36.3594 26H33.5117L37.9238 13.2734H41.3164L45.7109 26H42.8809L41.9316 23.0645H37.3262L36.3594 26ZM37.9941 21.0078H41.2637L39.6641 16.1387H39.5762L37.9941 21.0078ZM49.7891 13.2734V26H47.1523V13.2734H49.7891ZM61.6895 15.9805C61.6895 18.5645 63.0078 21.3242 65.6973 22.4492L64.4844 24.207C62.5947 23.4072 61.2939 21.8164 60.582 19.8652C59.8525 21.9834 58.5254 23.7412 56.6445 24.6113L55.3613 22.8359C58.0156 21.6582 59.3867 18.6875 59.3867 15.9805V14.9961H55.9941V13.168H65.0293V14.9961H61.6895V15.9805ZM68.8789 11.6211V27.6172H66.6113V11.6211H68.8789ZM84.5938 11.6387V23.7148H82.3438V22.4492H79.2852V20.9199H82.3438V11.6387H84.5938ZM84.9453 25.543V27.3359H73.0273V22.5547H75.2598V20.4277C73.8271 20.4893 72.4648 20.498 71.252 20.498L70.9883 18.7227C73.9238 18.7051 77.8789 18.6699 81.2539 18.248L81.377 19.8477C80.1113 20.0586 78.8018 20.208 77.5098 20.3047V23.3457H75.2598V25.543H84.9453ZM76.1914 12.1836C78.5117 12.166 80.1816 13.3438 80.1816 15.0488C80.1816 16.7539 78.5117 17.8613 76.1914 17.8613C73.8184 17.8613 72.166 16.7539 72.166 15.0488C72.166 13.3438 73.8008 12.166 76.1914 12.1836ZM76.1914 13.8184C75.0488 13.8184 74.2754 14.2578 74.293 15.0488C74.2754 15.8223 75.0488 16.2441 76.1914 16.2441C77.2637 16.2441 78.0371 15.8223 78.0547 15.0488C78.0371 14.2578 77.2637 13.8184 76.1914 13.8184ZM98.9023 12.6582V19.6719H91.2207V12.6582H98.9023ZM93.4355 14.4336V17.8965H96.6875V14.4336H93.4355ZM103.438 11.6211V15.1016H105.6V16.9297H103.438V20.5859H101.188V11.6211H103.438ZM103.631 21.3418V23.1172H99.5352C99.9131 24.3125 101.495 25.499 104.334 25.877L103.543 27.582C100.977 27.2393 99.166 26.2109 98.252 24.8398C97.3291 26.2109 95.5273 27.2217 92.9785 27.5469L92.1699 25.8418C95.0527 25.4902 96.5996 24.3477 96.9688 23.1172H92.8555V21.3418H103.631ZM120.893 19.3027V21.0781H114.688V22.3086H119.152V27.4414H107.99V22.3086H112.473V21.0781H106.303V19.3027H120.893ZM114.688 11.6211V12.9922H119.486V14.75H114.881C115.153 15.8574 116.788 16.8506 120.242 17.0527L119.592 18.7051C116.63 18.5029 114.582 17.6943 113.58 16.4375C112.569 17.6943 110.521 18.5029 107.568 18.7051L106.918 17.0527C110.398 16.8506 111.998 15.8574 112.297 14.75H107.709V12.9922H112.473V11.6211H114.688ZM110.205 24.084V25.6484H116.955V24.084H110.205ZM140.65 23.9609V25.8418H126.008V23.9609H132.16V21.0781H127.221V19.3203H129.365V14.75H127.15V12.957H139.42V14.75H137.17V19.3203H139.35V21.0781H134.393V23.9609H140.65ZM131.615 19.3203H134.955V14.75H131.615V19.3203ZM154.607 19.8828V21.6582H143.287V12.7988H154.484V14.6094H145.572V16.2969H154.115V18.0547H145.572V19.8828H154.607ZM156.207 23.9258V25.7539H141.564V23.9258H156.207ZM170.41 12.0078V13.6602H168.318V15.7695H170.305V17.4395H165.523V18.4414H171.711V20.1816H157.121V18.4414H163.273V17.4395H158.51V15.7695H160.479V13.6602H158.404V12.0078H170.41ZM169.936 21.0254V24.9453H161.023V25.8594H170.357V27.5117H158.826V23.4336H167.721V22.625H158.809V21.0254H169.936ZM162.729 15.7695H166.068V13.6602H162.729V15.7695ZM186.09 11.6211V27.6523H183.857V11.6211H186.09ZM181.133 12.957V19.127H175.859V22.0625C178.294 22.0537 180.368 21.9131 182.715 21.5352L182.908 23.3457C180.271 23.8027 177.898 23.9082 174.98 23.9082H173.539V17.3516H178.848V14.7676H173.521V12.957H181.133ZM195.529 12.4473C198.975 12.4473 201.541 14.1875 201.559 16.8242C201.541 19.2324 199.511 20.8584 196.637 21.1836V23.9082H202.877V25.7539H188.234V23.9082H194.404V21.166C191.539 20.8584 189.518 19.2236 189.518 16.8242C189.518 14.1875 192.084 12.4473 195.529 12.4473ZM195.529 14.2402C193.297 14.2402 191.732 15.2246 191.732 16.8242C191.732 18.5117 193.297 19.4609 195.529 19.4609C197.779 19.4609 199.326 18.5117 199.344 16.8242C199.326 15.2246 197.779 14.2402 195.529 14.2402ZM213.828 15.0312C213.828 16.7012 215.041 18.3359 217.607 19.0039L216.605 20.7441C214.76 20.2607 213.477 19.2412 212.738 17.9316C212.035 19.3643 210.761 20.4805 208.871 21.0254L207.816 19.2852C210.4 18.582 211.596 16.8242 211.596 15.0312V14.9785H208.379V13.2207H211.596V11.5508H213.863V13.2207H217.062V14.9785H213.828V15.0312ZM221.422 11.6211V20.9902H219.189V17.6328H216.658V15.8223H219.189V11.6211H221.422ZM221.422 21.6758V27.4414H210.664V21.6758H221.422ZM212.914 23.4688V25.6484H219.225V23.4688H212.914ZM229.402 14.1172C229.385 16.0508 230.51 17.9141 233.076 18.7227L231.969 20.4453C230.176 19.9004 228.963 18.7666 228.277 17.334C227.574 18.8721 226.326 20.0762 224.463 20.6562L223.338 18.8984C225.992 18.0723 227.135 16.0156 227.152 13.9238V12.4473H229.402V14.1172ZM236.188 11.6211V15.5234H238.35V17.4043H236.188V21.2891H233.938V11.6211H236.188ZM236.188 21.957V27.6172H233.938V23.7324H225.412V21.957H236.188ZM249.424 15.2422C249.424 18.1777 250.76 21.1309 253.467 22.2734L252.148 24.0664C250.32 23.2402 249.055 21.6494 248.334 19.6719C247.604 21.8252 246.295 23.5654 244.344 24.4531L242.99 22.5898C245.785 21.4121 247.139 18.3535 247.156 15.2422V12.8516H249.424V15.2422ZM256.596 11.6211V27.6523H254.328V11.6211H256.596ZM267.846 12.5527V14.3457H264.664C264.682 16.2178 265.789 18.1338 268.391 18.9688L267.248 20.709C265.473 20.1377 264.251 18.9951 263.557 17.5625C262.845 19.127 261.57 20.3662 259.707 20.9727L258.512 19.25C261.157 18.3975 262.361 16.3496 262.396 14.3457H259.127V12.5527H267.846ZM271.449 11.6211V15.5059H273.611V17.3691H271.449V21.2715H269.199V11.6211H271.449ZM271.449 21.957V27.6172H269.199V23.7324H260.674V21.957H271.449Z" fill="white"/>
</svg>
