<svg width="429" height="116" viewBox="0 0 429 116" fill="none" xmlns="http://www.w3.org/2000/svg">
<g filter="url(#filter0_d_5655_4005)">
<path d="M15 89C15 95.6274 20.3726 101 27 101L379.229 101C385.857 101 391.229 95.6274 391.229 89L391.229 79.5785C391.229 78.4555 393.255 77.2937 394.078 76.5303L412.472 59.4717C413.324 58.6808 413.326 57.3326 412.475 56.541L394.106 39.4687C393.289 38.7094 391.229 37.5241 391.229 36.4083L391.229 27C391.229 20.3726 385.857 15 379.229 15L27 15C20.3726 15 15 20.3726 15 27L15 89Z" fill="white"/>
</g>
<defs>
<filter id="filter0_d_5655_4005" x="0" y="0" width="428.113" height="116" filterUnits="userSpaceOnUse" color-interpolation-filters="sRGB">
<feFlood flood-opacity="0" result="BackgroundImageFix"/>
<feColorMatrix in="SourceAlpha" type="matrix" values="0 0 0 0 0 0 0 0 0 0 0 0 0 0 0 0 0 0 127 0" result="hardAlpha"/>
<feOffset/>
<feGaussianBlur stdDeviation="7.5"/>
<feComposite in2="hardAlpha" operator="out"/>
<feColorMatrix type="matrix" values="0 0 0 0 0 0 0 0 0 0 0 0 0 0 0 0 0 0 0.1 0"/>
<feBlend mode="normal" in2="BackgroundImageFix" result="effect1_dropShadow_5655_4005"/>
<feBlend mode="normal" in="SourceGraphic" in2="effect1_dropShadow_5655_4005" result="shape"/>
</filter>
</defs>
</svg>
