<svg width="32" height="32" viewBox="0 0 32 32" fill="none" xmlns="http://www.w3.org/2000/svg">
<circle cx="16" cy="16" r="16" fill="#898989"/>
<path d="M12.7143 7C13.3662 7 13.8929 7.48278 13.8929 8.08036V9.16071H18.6071V8.08036C18.6071 7.48278 19.1338 7 19.7857 7C20.4376 7 20.9643 7.48278 20.9643 8.08036V9.16071H22.7321C23.7081 9.16071 24.5 9.88658 24.5 10.7813V12.4018H8V10.7813C8 9.88658 8.79185 9.16071 9.76786 9.16071H11.5357V8.08036C11.5357 7.48278 12.0624 7 12.7143 7ZM8 13.4821H24.5V22.6652C24.5 23.5599 23.7081 24.2857 22.7321 24.2857H9.76786C8.79185 24.2857 8 23.5599 8 22.6652V13.4821ZM10.9464 15.6429C10.6223 15.6429 10.3571 15.8859 10.3571 16.183V19.4241C10.3571 19.7212 10.6223 19.9643 10.9464 19.9643H14.4821C14.8063 19.9643 15.0714 19.7212 15.0714 19.4241V16.183C15.0714 15.8859 14.8063 15.6429 14.4821 15.6429H10.9464Z" fill="white"/>
</svg>
