<svg width="24" height="24" viewBox="0 0 24 24" fill="none" xmlns="http://www.w3.org/2000/svg">
<path d="M18.4393 9.56365L12.7772 15.5692C12.6461 15.7083 12.5051 15.8152 12.3542 15.89C12.2033 15.9648 12.0376 16.0015 11.8571 16C11.6767 15.9985 11.511 15.9611 11.3601 15.8878C11.2092 15.8145 11.0682 15.7076 10.9371 15.567L5.27496 9.5614C5.19741 9.47765 5.13184 9.38119 5.07826 9.27201C5.02609 9.16283 5 9.04542 5 8.91979C5 8.66853 5.07755 8.45242 5.23266 8.27145C5.39059 8.09048 5.59716 8 5.85238 8L17.8598 8C18.1164 8 18.323 8.09273 18.4795 8.27818C18.636 8.46364 18.7143 8.679 18.7143 8.92428C18.7143 8.9871 18.6226 9.19947 18.4393 9.5614" fill="black"/>
</svg>
