<svg width="28" height="28" viewBox="0 0 28 28" fill="none" xmlns="http://www.w3.org/2000/svg">
<path d="M22.3323 5.25H4.8147C3.61036 5.25 2.625 6.23536 2.625 7.4397V20.5779C2.625 21.7822 3.61036 22.7676 4.8147 22.7676H22.3323C23.5366 22.7676 24.522 21.7822 24.522 20.5779V7.4397C24.522 6.23536 23.5366 5.25 22.3323 5.25ZM21.8943 9.90311L14.734 14.381C14.0224 14.8299 13.1246 14.8299 12.413 14.381L5.25264 9.90311C5.14286 9.84148 5.04672 9.75822 4.97005 9.65836C4.89337 9.5585 4.83776 9.44412 4.80657 9.32215C4.77538 9.20018 4.76927 9.07314 4.78859 8.94874C4.80792 8.82433 4.85229 8.70514 4.91902 8.59838C4.98574 8.49162 5.07344 8.3995 5.17679 8.32762C5.28015 8.25573 5.39702 8.20556 5.52032 8.18014C5.64363 8.15473 5.77081 8.1546 5.89417 8.17976C6.01753 8.20492 6.1345 8.25485 6.238 8.32653L13.5735 12.9139L20.909 8.32653C21.0125 8.25485 21.1295 8.20492 21.2528 8.17976C21.3762 8.1546 21.5034 8.15473 21.6267 8.18014C21.75 8.20556 21.8668 8.25573 21.9702 8.32762C22.0735 8.3995 22.1612 8.49162 22.228 8.59838C22.2947 8.70514 22.3391 8.82433 22.3584 8.94874C22.3777 9.07314 22.3716 9.20018 22.3404 9.32215C22.3092 9.44412 22.2536 9.5585 22.1769 9.65836C22.1003 9.75822 22.0041 9.84148 21.8943 9.90311Z" fill="#898989"/>
</svg>
