<svg width="162" height="32" viewBox="0 0 162 32" fill="none" xmlns="http://www.w3.org/2000/svg">
<path d="M63.7305 7.08203V24.7383H61.543V7.08203H63.7305ZM58.457 8.95703C58.457 14.2109 56.4258 18.6836 50.2344 21.6133L49.1016 19.875C53.7207 17.6777 55.8691 14.6895 56.25 10.6758H50V8.95703H58.457ZM71.1719 7.86328C73.457 7.84375 75.2539 9.16211 75.7031 11.1055H78.8867V7.08203H81.0547V16.5547H78.8867V12.8633H75.7227C75.2832 14.8457 73.4668 16.1836 71.1719 16.1836C68.457 16.1836 66.5039 14.4453 66.5039 12.0039C66.5039 9.60156 68.457 7.84375 71.1719 7.86328ZM71.1719 9.67969C69.6484 9.67969 68.5742 10.5781 68.5742 12.0039C68.5742 13.4102 69.6484 14.3477 71.1719 14.3477C72.6562 14.3477 73.7109 13.4102 73.7305 12.0039C73.7109 10.5781 72.6562 9.67969 71.1719 9.67969ZM71.5625 17.375V19.25H78.8867V17.375H81.0547V24.5234H69.4141V17.375H71.5625ZM71.5625 22.7656H78.8867V20.9297H71.5625V22.7656ZM103.086 7.08203V17.5703H100.918V13.2539H97.9102V11.4766H100.918V7.08203H103.086ZM97.1094 18.0195C100.859 18.0195 103.145 19.25 103.145 21.3789C103.145 23.5078 100.859 24.7383 97.1094 24.7383C93.3789 24.7383 91.0938 23.5078 91.1133 21.3789C91.0938 19.25 93.3789 18.0195 97.1094 18.0195ZM97.1094 19.6797C94.6484 19.6797 93.2617 20.2656 93.2617 21.3789C93.2617 22.4727 94.6484 23.0586 97.1094 23.0586C99.5703 23.0586 100.977 22.4727 100.977 21.3789C100.977 20.2656 99.5703 19.6797 97.1094 19.6797ZM94.7852 10.1094C94.7852 12.2578 96.2109 14.4258 98.9453 15.3438L97.8516 17.0625C95.8887 16.3984 94.4922 15.0508 93.7305 13.3906C92.9492 15.2754 91.4746 16.7793 89.375 17.5312L88.2422 15.8125C91.0742 14.8359 92.5781 12.4531 92.5781 10.1289V9.99219H88.9062V8.23438H98.4375V9.99219H94.7852V10.1094ZM121.719 20.832V22.6094H105.586V20.832H112.539V17.3945H107.363V8.25391H109.531V11.1445H117.715V8.25391H119.883V17.3945H114.688V20.832H121.719ZM109.531 15.6367H117.715V12.8828H109.531V15.6367ZM143.73 16.2227V17.9609H136.914V21.0078H134.766V17.9609H127.598V16.2227H143.73ZM141.953 22.6289V24.3867H129.551V19.5234H131.699V22.6289H141.953ZM131.855 7.64844V9.64062H139.473V7.64844H141.621V14.8359H129.707V7.64844H131.855ZM131.855 13.1172H139.473V11.2617H131.855V13.1172ZM151.309 9.875C151.309 12.1406 152.734 14.3086 155.449 15.1875L154.277 16.9258C152.363 16.252 150.996 14.9141 150.254 13.2148C149.463 15.0703 148.027 16.5254 145.996 17.2578L144.824 15.5195C147.695 14.5625 149.121 12.2578 149.121 9.73828V8H151.309V9.875ZM159.688 18.4297V24.7383H157.52V20.1484H147.656V18.4297H159.688ZM159.688 7.08203V17.5703H157.52V12.2969H154.004V10.5195H157.52V7.08203H159.688Z" fill="#898989"/>
<circle cx="16" cy="16" r="16" fill="#BBBBBB"/>
<path d="M17.7676 9.27344V22H15.1133V11.7871H15.043L12.125 13.6152V11.2773L15.2715 9.27344H17.7676Z" fill="white"/>
</svg>
