<svg width="80" height="108" viewBox="0 0 80 108" fill="none" xmlns="http://www.w3.org/2000/svg">
<path d="M64.7007 24.6998L48.6007 8.59984C47.3673 7.3665 45.6673 6.6665 43.9007 6.6665H20.0007C16.334 6.6665 13.3673 9.6665 13.3673 13.3332L13.334 66.6665C13.334 70.3332 16.3007 73.3332 19.9673 73.3332H60.0007C63.6673 73.3332 66.6673 70.3332 66.6673 66.6665V29.4332C66.6673 27.6665 65.9673 25.9665 64.7007 24.6998ZM49.334 49.9998H43.334V59.9998C43.334 61.8332 41.834 63.3332 40.0007 63.3332C38.1673 63.3332 36.6673 61.8332 36.6673 59.9998V49.9998H30.7007C29.2007 49.9998 28.4673 48.1998 29.534 47.1665L38.8673 37.8665C39.534 37.2332 40.5673 37.2332 41.234 37.8665L50.534 47.1665C51.534 48.1998 50.8007 49.9998 49.334 49.9998ZM46.6673 29.9998C44.834 29.9998 43.334 28.4998 43.334 26.6665V11.6665L61.6673 29.9998H46.6673Z" fill="#E7E7E7"/>
<path d="M11.5469 90.8906V91.9062H10V98.5938C10.75 98.5391 11.4922 98.4766 12.2031 98.3906L12.2656 99.2969C9.32812 99.7656 6 99.8125 3.54688 99.8281L3.39062 98.7812L5.26562 98.7656V91.9062H3.73438V90.8906H11.5469ZM14.3125 89.375V94.9531H16.6406V95.9844H14.3125V103.266H13.0938V89.375H14.3125ZM6.45312 98.75C7.22656 98.7344 8.03125 98.7031 8.82812 98.6562V91.9062H6.45312V98.75ZM21.3281 89.8906C23.4062 89.9062 24.9219 91.1562 24.9219 92.9688C24.9219 94.7812 23.4062 96.0312 21.3281 96.0312C19.2188 96.0312 17.7188 94.7812 17.7188 92.9688C17.7188 91.1562 19.2188 89.9062 21.3281 89.8906ZM21.3281 90.9219C19.9375 90.9219 18.9062 91.7656 18.9219 92.9688C18.9062 94.1875 19.9375 95.0312 21.3281 95.0312C22.7031 95.0312 23.7344 94.1875 23.7344 92.9688C23.7344 91.7656 22.7031 90.9219 21.3281 90.9219ZM28.8594 89.375V96.5156H27.6406V89.375H28.8594ZM28.8594 97.1875V100.531H21.0625V102.094H29.3594V103.078H19.8594V99.6094H27.6406V98.1719H19.8281V97.1875H28.8594ZM39.0625 90.0312C40.9297 90.0156 42.3438 91.1016 42.6094 92.7031H45.5156V89.375H46.75V96.8281H45.5156V93.7188H42.625C42.375 95.3594 40.9453 96.4531 39.0625 96.4531C36.9531 96.4531 35.4531 95.1406 35.4531 93.2344C35.4531 91.3438 36.9531 90.0156 39.0625 90.0312ZM39.0625 91.0781C37.6406 91.0625 36.625 91.9531 36.625 93.2344C36.625 94.5 37.6406 95.4219 39.0625 95.4219C40.4688 95.4219 41.4688 94.5 41.4688 93.2344C41.4688 91.9531 40.4688 91.0625 39.0625 91.0781ZM39.0312 97.5312V99.2969H45.5156V97.5312H46.75V103.078H37.7969V97.5312H39.0312ZM39.0312 102.078H45.5156V100.281H39.0312V102.078ZM61.7812 100.516V101.547H49.0625V100.516H54.7812V97.8906H50.6562V93.6094H58.9688V91.4219H50.625V90.4062H60.1719V94.6094H51.875V96.875H60.5V97.8906H55.9844V100.516H61.7812ZM74.1094 96.0625V97.0781H64.5156V90.6719H73.9688V91.6875H65.7344V96.0625H74.1094ZM75.6094 100.344V101.375H62.8906V100.344H75.6094Z" fill="#898989"/>
</svg>
