<svg width="457" height="238" viewBox="0 0 457 238" fill="none" xmlns="http://www.w3.org/2000/svg">
<g filter="url(#filter0_d_4463_18461)">
<rect x="15" y="15" width="427" height="208" rx="12" fill="white"/>
</g>
<path d="M416.168 42.0061C415.937 42.0061 415.711 41.9375 415.519 41.8092C415.327 41.6809 415.177 41.4985 415.089 41.2851C415.001 41.0718 414.977 40.837 415.022 40.6105C415.067 40.384 415.179 40.1759 415.342 40.0126L427.021 28.3339C427.241 28.1212 427.536 28.0035 427.842 28.0061C428.148 28.0088 428.441 28.1316 428.658 28.3482C428.874 28.5647 428.997 28.8576 429 29.1638C429.003 29.47 428.885 29.765 428.672 29.9853L416.993 41.6639C416.774 41.883 416.477 42.006 416.168 42.0061Z" fill="#898989"/>
<path d="M427.832 42.0061C427.523 42.006 427.226 41.883 427.007 41.6639L415.328 29.9853C415.115 29.765 414.997 29.47 415 29.1638C415.003 28.8576 415.126 28.5647 415.342 28.3482C415.559 28.1316 415.852 28.0088 416.158 28.0061C416.464 28.0035 416.759 28.1212 416.979 28.3339L428.658 40.0126C428.821 40.1759 428.933 40.384 428.978 40.6105C429.023 40.837 428.999 41.0718 428.911 41.2851C428.823 41.4985 428.673 41.6809 428.481 41.8092C428.289 41.9375 428.063 42.0061 427.832 42.0061Z" fill="#898989"/>
<path d="M54.166 53.8594H56.6855V63.8008C56.6855 66.5352 54.8496 68.1953 52.1348 68.1953C49.6543 68.1953 47.7598 66.8477 47.7598 64.25H50.2988C50.2988 65.4023 51.0801 66.1055 52.2324 66.1055C53.4629 66.1055 54.1465 65.3047 54.166 63.8008V53.8594ZM64.1074 68H59.3027V53.8594H64.1855C68.4043 53.8594 70.9629 56.5156 70.9629 60.9102C70.9629 65.3242 68.4043 68 64.1074 68ZM61.8418 65.793H63.9707C66.9199 65.793 68.4238 64.1719 68.4238 60.9102C68.4238 57.668 66.9199 56.0664 64.0488 56.0664H61.8418V65.793ZM86.3145 52.082V58.9766H88.9316V60.793H86.3145V69.6992H84.1465V52.082H86.3145ZM81.6465 53.918C81.6465 59.1133 79.498 63.6641 73.6191 66.5547L72.3887 64.875C76.6855 62.7363 79.0098 59.7285 79.459 55.7148H73.3457V53.918H81.6465ZM110.631 62.082V63.8398H103.6V69.7188H101.451V63.8398H94.498V62.082H110.631ZM108.658 52.9805V60.0117H96.4707V52.9805H108.658ZM98.5996 54.7188V58.3125H106.49V54.7188H98.5996ZM126.588 52.082V64.0352H124.42V58.4883H121.236C120.787 60.5098 118.98 61.8867 116.705 61.8867C114.049 61.8867 112.037 60.0703 112.037 57.5508C112.037 54.9922 114.049 53.2344 116.705 53.2344C119.029 53.2344 120.865 54.6211 121.256 56.7305H124.42V52.082H126.588ZM116.705 55.0703C115.182 55.0703 114.107 56.0664 114.107 57.5508C114.107 59.0742 115.182 60.0312 116.705 60.0312C118.15 60.0312 119.244 59.0742 119.264 57.5508C119.244 56.0664 118.15 55.0703 116.705 55.0703ZM121.861 63.4102C121.842 65.4609 124.049 67.4141 127.623 67.9219L126.764 69.6211C123.932 69.1914 121.773 67.8633 120.709 66.0469C119.625 67.8438 117.457 69.1914 114.654 69.6211L113.873 67.9219C117.33 67.3945 119.615 65.3633 119.615 63.4102V62.8242H121.861V63.4102ZM143.795 52.1016V64.8555H141.607V52.1016H143.795ZM144.283 67.6289V69.3867H132.115V63.5664H134.303V67.6289H144.283ZM134.166 53.2539C136.842 53.2539 138.912 55.1094 138.912 57.668C138.912 60.2852 136.842 62.1016 134.166 62.1016C131.471 62.1016 129.4 60.2852 129.4 57.668C129.4 55.1094 131.471 53.2539 134.166 53.2539ZM134.166 55.1484C132.662 55.1484 131.51 56.1445 131.529 57.668C131.51 59.2305 132.662 60.207 134.166 60.207C135.631 60.207 136.783 59.2305 136.783 57.668C136.783 56.1445 135.631 55.1484 134.166 55.1484ZM160.201 52.082V58.9766H162.818V60.793H160.201V69.6992H158.033V52.082H160.201ZM155.533 53.918C155.533 59.1133 153.385 63.6641 147.506 66.5547L146.275 64.875C150.572 62.7363 152.896 59.7285 153.346 55.7148H147.232V53.918H155.533ZM179.791 65.8125V67.5898H163.658V65.8125H167.389V61.3398C165.982 60.5391 165.133 59.2793 165.143 57.707C165.123 54.8945 167.896 53.0391 171.686 53.0391C175.494 53.0391 178.268 54.8945 178.268 57.707C178.268 59.25 177.447 60.4902 176.08 61.3008V65.8125H179.791ZM171.686 54.7578C169.049 54.7578 167.252 55.8711 167.271 57.707C167.252 59.5234 169.049 60.6562 171.686 60.6562C174.322 60.6562 176.139 59.5234 176.139 57.707C176.139 55.8711 174.322 54.7578 171.686 54.7578ZM169.537 65.8125H173.873V62.1211C173.199 62.2773 172.467 62.3555 171.686 62.3555C170.924 62.3555 170.201 62.2773 169.537 62.1406V65.8125ZM183.932 63.6641C183.951 61.1836 184.654 60.4219 185.885 59.6602C186.725 59.1328 187.35 58.4688 187.35 57.4922C187.35 56.3984 186.51 55.6953 185.436 55.6953C184.459 55.6953 183.521 56.3203 183.463 57.6289H181.021C181.08 55.0117 183.053 53.6641 185.455 53.6641C188.092 53.6641 189.908 55.1289 189.908 57.4531C189.908 59.0352 189.107 60.0703 187.838 60.832C186.705 61.5156 186.236 62.1992 186.217 63.6641V63.8398H183.932V63.6641ZM185.143 68.1562C184.303 68.1562 183.619 67.4727 183.619 66.6328C183.619 65.8125 184.303 65.1289 185.143 65.1289C185.943 65.1289 186.646 65.8125 186.646 66.6328C186.646 67.4727 185.943 68.1562 185.143 68.1562Z" fill="black"/>
<path d="M47 83L410 83" stroke="#BBBBBB" stroke-linecap="round"/>
<path d="M52.5781 101.688H54V109.766C54 111.938 52.7188 113.156 50.75 113.156C48.875 113.156 47.5156 112.078 47.5156 110.328H48.9062C48.9062 111.281 49.6875 111.906 50.75 111.906C51.9219 111.906 52.5781 111.172 52.5781 109.766V101.688ZM60.0156 113H56.5V101.688H60.1562C63.4531 101.688 65.4062 103.812 65.4062 107.328C65.4062 110.859 63.4531 113 60.0156 113ZM57.9062 111.75H59.9219C62.7031 111.75 64.0312 110.078 64.0312 107.328C64.0312 104.594 62.7031 102.938 60.0625 102.938H57.9062V111.75ZM78.0156 104.594V105.578H68.5V100.891H69.7188V104.594H78.0156ZM79.4844 107.469V108.469H66.7656V107.469H79.4844ZM78.0938 112.906V113.922H68.4219V109.891H69.6406V112.906H78.0938ZM88.6875 104.641C88.6875 106.859 89.8281 109.141 91.7344 110.156L91.0156 111.078C89.6328 110.32 88.6328 108.898 88.125 107.219C87.625 109 86.6328 110.547 85.25 111.359L84.5156 110.453C86.3906 109.359 87.5156 106.938 87.5312 104.641V104H84.8438V102.984H87.5312V100.891H88.7031V102.984H91.3594V104H88.6875V104.641ZM96.5625 100.375V114.266H95.375V107.047H93.4844V113.562H92.3125V100.672H93.4844V106H95.375V100.375H96.5625ZM111.109 107.25V108.266H98.4531V107.25H101.594V105.297C100.484 104.867 99.8594 104.156 99.8594 103.219C99.8594 101.578 101.734 100.641 104.781 100.641C107.797 100.641 109.688 101.578 109.688 103.219C109.688 104.148 109.07 104.859 107.969 105.281V107.25H111.109ZM104.781 109.328C107.766 109.328 109.547 110.188 109.562 111.781C109.547 113.359 107.766 114.234 104.781 114.234C101.766 114.234 99.9844 113.359 99.9844 111.781C99.9844 110.188 101.766 109.328 104.781 109.328ZM104.781 110.266C102.547 110.281 101.219 110.828 101.234 111.781C101.219 112.719 102.547 113.281 104.781 113.281C106.984 113.281 108.328 112.719 108.328 111.781C108.328 110.828 106.984 110.281 104.781 110.266ZM104.781 101.609C102.516 101.609 101.109 102.219 101.125 103.219C101.109 104.234 102.516 104.828 104.781 104.828C107.031 104.828 108.438 104.234 108.438 103.219C108.438 102.219 107.031 101.609 104.781 101.609ZM102.812 107.25H106.75V105.625C106.164 105.727 105.508 105.781 104.781 105.781C104.055 105.781 103.398 105.727 102.812 105.625V107.25ZM118.562 109.156C121.547 109.156 123.438 110.094 123.438 111.703C123.438 113.297 121.547 114.234 118.562 114.234C115.594 114.234 113.703 113.297 113.703 111.703C113.703 110.094 115.594 109.156 118.562 109.156ZM118.562 110.094C116.344 110.109 114.906 110.719 114.922 111.703C114.906 112.672 116.344 113.266 118.562 113.266C120.781 113.266 122.203 112.672 122.219 111.703C122.203 110.719 120.781 110.109 118.562 110.094ZM123.328 101.094V102.266C123.328 103.391 123.328 104.516 122.938 105.953L121.734 105.812C122.109 104.375 122.109 103.359 122.109 102.266V102.094H113.797V101.094H123.328ZM124.938 106.859V107.859H112.297V106.859H117.531V104.172H118.734V106.859H124.938ZM137.25 101.781V103.172C137.234 104.875 137.234 106.781 136.734 109.578L135.484 109.438C136.016 106.781 136.016 104.828 136.016 103.172V102.797H127.453V101.781H137.25ZM138.766 111.281V112.297H126.109V111.281H131.078V106.312H132.281V111.281H138.766ZM151.844 100.375V114.266H150.656V100.375H151.844ZM149.047 100.672V113.562H147.875V106.812H146.094C145.961 109.516 144.812 111.203 143.094 111.203C141.281 111.203 140.109 109.328 140.109 106.375C140.109 103.422 141.281 101.547 143.094 101.547C144.781 101.547 145.922 103.18 146.078 105.797H147.875V100.672H149.047ZM143.094 102.703C141.969 102.703 141.25 104.109 141.266 106.375C141.25 108.625 141.969 110.047 143.094 110.031C144.219 110.047 144.938 108.625 144.938 106.375C144.938 104.109 144.219 102.703 143.094 102.703ZM169.297 100.375V108.609H168.062V106.422H164.812V107.609H158.438V101.438H164.812V102.641H168.062V100.375H169.297ZM159.656 102.438V106.609H163.609V102.438H159.656ZM164.688 109.016C167.578 109.016 169.344 109.969 169.344 111.641C169.344 113.297 167.578 114.234 164.688 114.234C161.797 114.234 160.031 113.297 160.031 111.641C160.031 109.969 161.797 109.016 164.688 109.016ZM164.688 109.969C162.562 109.984 161.234 110.594 161.25 111.641C161.234 112.641 162.562 113.266 164.688 113.266C166.812 113.266 168.125 112.641 168.125 111.641C168.125 110.594 166.812 109.984 164.688 109.969ZM164.812 105.391H168.062V103.656H164.812V105.391ZM176.547 104.109C176.531 106.641 178.266 109.203 180.312 110.125L179.562 111.094C177.984 110.32 176.617 108.688 175.953 106.703C175.305 108.805 173.938 110.555 172.312 111.375L171.531 110.344C173.594 109.391 175.312 106.75 175.328 104.109V101.578H176.547V104.109ZM183.062 100.375V114.297H181.828V100.375H183.062ZM193.516 104.938V105.938H190.703V107.875C192 107.82 193.297 107.727 194.5 107.594L194.594 108.5C191.609 108.906 188.297 109 185.688 109L185.5 108C186.719 107.992 188.086 107.977 189.484 107.922V105.938H186.766V101.281H193.406V102.297H188V104.938H193.516ZM196.891 100.391V110.781H195.656V100.391H196.891ZM197.344 112.938V113.969H187.875V110.062H189.094V112.938H197.344ZM208.281 102.953C208.281 104.828 209.766 106.531 211.844 107.203L211.219 108.156C209.602 107.609 208.312 106.461 207.688 104.984C207.078 106.57 205.773 107.82 204.125 108.422L203.484 107.469C205.562 106.734 207.047 104.922 207.047 102.953V102.359H203.797V101.359H211.484V102.359H208.281V102.953ZM214.75 100.375V108.781H213.531V100.375H214.75ZM214.75 109.516V114.266H213.531V110.531H205.406V109.516H214.75ZM229.812 108.453V109.469H224.016V114.266H222.812V109.469H217.094V108.453H229.812ZM228.156 101.156V106.562H218.734V101.156H228.156ZM219.938 102.156V105.594H226.938V102.156H219.938ZM246.469 100.375V107.562H245.234V103.953H242.141V102.938H245.234V100.375H246.469ZM246.469 108.266V111.578H238.703V113.094H246.984V114.078H237.5V110.641H245.25V109.25H237.469V108.266H246.469ZM239.688 102.141C239.672 103.969 241.109 105.625 243.141 106.297L242.484 107.25C240.945 106.703 239.719 105.609 239.109 104.203C238.516 105.789 237.258 107 235.609 107.594L234.938 106.609C237.031 105.922 238.469 104.172 238.484 102.141V100.828H239.688V102.141ZM260.297 100.375V108.609H259.062V106.422H255.812V107.609H249.438V101.438H255.812V102.641H259.062V100.375H260.297ZM250.656 102.438V106.609H254.609V102.438H250.656ZM255.688 109.016C258.578 109.016 260.344 109.969 260.344 111.641C260.344 113.297 258.578 114.234 255.688 114.234C252.797 114.234 251.031 113.297 251.031 111.641C251.031 109.969 252.797 109.016 255.688 109.016ZM255.688 109.969C253.562 109.984 252.234 110.594 252.25 111.641C252.234 112.641 253.562 113.266 255.688 113.266C257.812 113.266 259.125 112.641 259.125 111.641C259.125 110.594 257.812 109.984 255.688 109.969ZM255.812 105.391H259.062V103.656H255.812V105.391ZM267.5 104.109C267.5 106.625 269.109 109.156 271.125 110.078L270.391 111.078C268.812 110.266 267.508 108.602 266.891 106.625C266.273 108.703 264.969 110.484 263.391 111.328L262.594 110.344C264.625 109.344 266.25 106.672 266.25 104.109V101.578H267.5V104.109ZM274.125 100.375V114.297H272.906V106.125H269.609V105.125H272.906V100.375H274.125ZM289.156 111.516V112.547H276.438V111.516H282.156V108.891H278.031V104.609H286.344V102.422H278V101.406H287.547V105.609H279.25V107.875H287.875V108.891H283.359V111.516H289.156ZM292.547 111.953L291.328 116.203H290.172L291.031 111.953H292.547ZM58.9531 124.375V138.266H57.7344V124.375H58.9531ZM47.6406 134.562C48.8281 134.555 50.1875 134.547 51.5938 134.5V132.984C49.9297 132.805 48.8438 131.859 48.8594 130.469C48.8438 128.906 50.1875 127.891 52.1875 127.891C54.1875 127.891 55.5469 128.906 55.5469 130.469C55.5469 131.844 54.4688 132.789 52.8281 132.969V134.453C54.1719 134.398 55.5312 134.297 56.8125 134.125L56.9062 135.062C53.8125 135.562 50.4062 135.609 47.8281 135.609L47.6406 134.562ZM56.4531 126.094V127.094H47.9375V126.094H51.5938V124.391H52.8281V126.094H56.4531ZM52.1875 128.844C50.9062 128.844 50 129.5 50 130.469C50 131.438 50.9062 132.062 52.1875 132.047C53.4844 132.062 54.375 131.438 54.375 130.469C54.375 129.5 53.4844 128.844 52.1875 128.844ZM66.0469 128.109C66.0469 130.562 67.6719 133.078 69.6406 134.047L68.8906 135.031C67.3594 134.227 66.0781 132.586 65.4688 130.656C64.8438 132.711 63.5312 134.461 61.9688 135.297L61.1875 134.312C63.2188 133.312 64.8281 130.641 64.8438 128.109V125.578H66.0469V128.109ZM72.1406 124.375V130.016H74.4688V131.078H72.1406V138.266H70.9219V124.375H72.1406ZM87.125 124.375V138.266H85.9375V124.375H87.125ZM84.3281 124.672V137.562H83.1562V130.812H81.375C81.2422 133.516 80.0938 135.203 78.375 135.203C76.5625 135.203 75.3906 133.328 75.3906 130.375C75.3906 127.422 76.5625 125.547 78.375 125.547C80.0625 125.547 81.2031 127.18 81.3594 129.797H83.1562V124.672H84.3281ZM78.375 126.703C77.25 126.703 76.5312 128.109 76.5469 130.375C76.5312 132.625 77.25 134.047 78.375 134.031C79.5 134.047 80.2188 132.625 80.2188 130.375C80.2188 128.109 79.5 126.703 78.375 126.703ZM93.9375 128.109C93.9375 130.625 95.5469 133.156 97.5625 134.078L96.8281 135.078C95.25 134.266 93.9453 132.602 93.3281 130.625C92.7109 132.703 91.4062 134.484 89.8281 135.328L89.0312 134.344C91.0625 133.344 92.6875 130.672 92.6875 128.109V125.578H93.9375V128.109ZM100.562 124.375V138.297H99.3438V130.125H96.0469V129.125H99.3438V124.375H100.562ZM110.625 125.453C112.516 125.469 113.875 127.086 114.078 129.688H117.188V124.375H118.406V138.297H117.188V130.703H114.094C113.945 133.422 112.562 135.125 110.625 135.125C108.578 135.125 107.141 133.25 107.141 130.297C107.141 127.344 108.578 125.469 110.625 125.453ZM110.625 126.547C109.25 126.562 108.312 128.031 108.312 130.297C108.312 132.562 109.25 134.031 110.625 134.031C111.984 134.031 112.938 132.562 112.938 130.297C112.938 128.031 111.984 126.562 110.625 126.547ZM132.734 136.938V137.969H123.062V133.656H124.281V136.938H132.734ZM132.359 124.391V134.484H131.156V129.234H128.594V128.219H131.156V124.391H132.359ZM124.625 125.531V126.547H122.312V131.234C123.023 131.219 123.859 131.141 124.781 130.938L124.906 131.953C123.609 132.234 122.594 132.234 121.703 132.234H121.109V125.531H124.625ZM129.266 125.531V126.547H126.625V131.25C127.812 131.234 128.734 131.164 129.797 130.906L129.922 131.922C128.625 132.203 127.609 132.234 126.094 132.234H125.391V125.531H129.266ZM142.5 124.891C144.578 124.906 146.094 126.156 146.094 127.969C146.094 129.781 144.578 131.031 142.5 131.031C140.391 131.031 138.891 129.781 138.891 127.969C138.891 126.156 140.391 124.906 142.5 124.891ZM142.5 125.922C141.109 125.922 140.078 126.766 140.094 127.969C140.078 129.188 141.109 130.031 142.5 130.031C143.875 130.031 144.906 129.188 144.906 127.969C144.906 126.766 143.875 125.922 142.5 125.922ZM150.031 124.375V131.516H148.812V124.375H150.031ZM150.031 132.188V135.531H142.234V137.094H150.531V138.078H141.031V134.609H148.812V133.172H141V132.188H150.031ZM158.719 124.625C161.812 124.625 163.625 125.469 163.625 127.016C163.625 128.594 161.812 129.438 158.719 129.453C155.625 129.438 153.797 128.594 153.797 127.016C153.797 125.469 155.625 124.625 158.719 124.625ZM158.719 125.547C156.406 125.547 155.062 126.109 155.078 127.016C155.062 127.984 156.406 128.516 158.719 128.516C161.016 128.516 162.375 127.984 162.375 127.016C162.375 126.109 161.016 125.547 158.719 125.547ZM165.047 130.391V131.391H152.391V130.391H165.047ZM163.422 132.594V135.703H155.172V137.141H163.844V138.109H153.953V134.797H162.219V133.531H153.922V132.594H163.422ZM181.094 124.328V127.703H183.203V128.719H181.094V132.016H179.875V124.328H181.094ZM181.094 132.734V135.812H173.469V137.172H181.609V138.109H172.266V134.906H179.875V133.656H172.234V132.734H181.094ZM178.547 125.641V126.625H170.266V125.641H173.797V124.234H175.016V125.641H178.547ZM174.406 127.25C176.422 127.25 177.734 128.125 177.75 129.531C177.734 130.938 176.422 131.812 174.406 131.812C172.375 131.812 171.047 130.938 171.062 129.531C171.047 128.125 172.375 127.25 174.406 127.25ZM174.406 128.156C173.094 128.156 172.219 128.703 172.234 129.531C172.219 130.375 173.094 130.891 174.406 130.891C175.719 130.891 176.578 130.375 176.594 129.531C176.578 128.703 175.719 128.156 174.406 128.156ZM192.734 128.109C192.734 130.562 194.359 133.078 196.328 134.047L195.578 135.031C194.047 134.227 192.766 132.586 192.156 130.656C191.531 132.711 190.219 134.461 188.656 135.297L187.875 134.312C189.906 133.312 191.516 130.641 191.531 128.109V125.578H192.734V128.109ZM198.828 124.375V130.016H201.156V131.078H198.828V138.266H197.609V124.375H198.828ZM212.766 124.391V127.953H214.875V129H212.766V132.672H211.547V124.391H212.766ZM212.766 133.359V138.078H203.969V133.359H212.766ZM205.172 134.312V137.078H211.578V134.312H205.172ZM208.797 125.141V128.938H203.734V130.906C206.203 130.906 207.992 130.836 210.156 130.484L210.281 131.469C208.047 131.859 206.188 131.938 203.609 131.938H202.531V127.984H207.594V126.156H202.5V125.141H208.797ZM222.062 124.625C225.156 124.625 226.969 125.469 226.969 127.016C226.969 128.594 225.156 129.438 222.062 129.453C218.969 129.438 217.141 128.594 217.141 127.016C217.141 125.469 218.969 124.625 222.062 124.625ZM222.062 125.547C219.75 125.547 218.406 126.109 218.422 127.016C218.406 127.984 219.75 128.516 222.062 128.516C224.359 128.516 225.719 127.984 225.719 127.016C225.719 126.109 224.359 125.547 222.062 125.547ZM228.391 130.391V131.391H215.734V130.391H228.391ZM226.766 132.594V135.703H218.516V137.141H227.188V138.109H217.297V134.797H225.562V133.531H217.266V132.594H226.766ZM238.312 127.281C238.312 128.938 239.719 130.469 241.766 131.078L241.188 132.016C239.586 131.539 238.336 130.508 237.734 129.172C237.125 130.641 235.836 131.758 234.188 132.297L233.578 131.328C235.641 130.703 237.109 129.109 237.109 127.281V127.016H233.969V126H237.109V124.312H238.344V126H241.453V127.016H238.312V127.281ZM244.438 124.375V127.812H246.531V128.844H244.438V132.453H243.219V124.375H244.438ZM244.688 133.203V134.203H240.75C240.953 135.656 242.992 136.906 245.219 137.266L244.766 138.219C242.727 137.883 240.883 136.875 240.094 135.484C239.297 136.867 237.469 137.852 235.453 138.203L234.984 137.266C237.227 136.906 239.242 135.68 239.453 134.203H235.531V133.203H244.688ZM258.547 125.781V127.172C258.531 128.875 258.531 130.781 258.031 133.578L256.781 133.438C257.312 130.781 257.312 128.828 257.312 127.172V126.797H248.75V125.781H258.547ZM260.062 135.281V136.297H247.406V135.281H252.375V130.312H253.578V135.281H260.062ZM269.953 133.703C269.953 134.93 270.609 136.234 271.938 136.984C273.25 136.164 273.953 134.781 273.953 133.703V132.938H275.156V133.703C275.156 135.125 276.203 136.562 277.984 137.172L277.375 138.078C275.984 137.586 275.008 136.617 274.531 135.453C274.102 136.578 273.25 137.641 271.969 138.188C270.617 137.672 269.758 136.648 269.344 135.484C268.852 136.609 267.891 137.578 266.562 138.078L265.938 137.172C267.688 136.516 268.75 135.031 268.766 133.703V132.938H269.953V133.703ZM276.719 124.391V132.328H275.5V124.391H276.719ZM269.219 125.203C271.328 125.203 272.859 126.516 272.859 128.453C272.859 130.359 271.328 131.672 269.219 131.672C267.109 131.672 265.578 130.359 265.578 128.453C265.578 126.516 267.109 125.203 269.219 125.203ZM269.219 126.25C267.797 126.234 266.766 127.156 266.781 128.453C266.766 129.734 267.797 130.641 269.219 130.656C270.625 130.641 271.656 129.734 271.656 128.453C271.656 127.156 270.625 126.234 269.219 126.25ZM290.312 128.594V129.578H280.797V124.891H282.016V128.594H290.312ZM291.781 131.469V132.469H279.062V131.469H291.781ZM290.391 136.906V137.922H280.719V133.891H281.938V136.906H290.391ZM297.875 128.641C297.875 131 299.594 133.391 301.641 134.281L300.953 135.25C299.328 134.508 297.922 132.906 297.281 130.984C296.625 133.023 295.227 134.797 293.641 135.594L292.906 134.625C294.891 133.672 296.625 131.047 296.641 128.641V126.828H293.359V125.812H301.188V126.828H297.875V128.641ZM304.359 124.375V138.266H303.125V124.375H304.359ZM309.016 135.953L307.797 140.203H306.641L307.5 135.953H309.016ZM58.5156 149.859V151.25C58.5156 153 58.5156 154.984 58 158L56.75 157.875C57.3125 155.031 57.3125 152.953 57.3125 151.25V150.875H48.9375V149.859H58.5156ZM60.2188 159.203V160.219H47.5625V159.203H60.2188ZM70.0625 152.109C70.0625 154.562 71.6875 157.078 73.6562 158.047L72.9062 159.031C71.375 158.227 70.0938 156.586 69.4844 154.656C68.8594 156.711 67.5469 158.461 65.9844 159.297L65.2031 158.312C67.2344 157.312 68.8438 154.641 68.8594 152.109V149.578H70.0625V152.109ZM76.1562 148.375V154.016H78.4844V155.078H76.1562V162.266H74.9375V148.375H76.1562ZM90.0938 148.391V151.953H92.2031V153H90.0938V156.672H88.875V148.391H90.0938ZM90.0938 157.359V162.078H81.2969V157.359H90.0938ZM82.5 158.312V161.078H88.9062V158.312H82.5ZM86.125 149.141V152.938H81.0625V154.906C83.5312 154.906 85.3203 154.836 87.4844 154.484L87.6094 155.469C85.375 155.859 83.5156 155.938 80.9375 155.938H79.8594V151.984H84.9219V150.156H79.8281V149.141H86.125ZM104.516 148.375V162.297H103.281V148.375H104.516ZM97.125 149.453C99.1875 149.469 100.672 151.344 100.672 154.297C100.672 157.25 99.1875 159.125 97.125 159.125C95.0469 159.125 93.5781 157.25 93.5781 154.297C93.5781 151.344 95.0469 149.469 97.125 149.453ZM97.125 150.547C95.7344 150.562 94.7656 152.031 94.7656 154.297C94.7656 156.562 95.7344 158.031 97.125 158.031C98.5156 158.031 99.4844 156.562 99.4844 154.297C99.4844 152.031 98.5156 150.562 97.125 150.547ZM114.641 149.453C116.531 149.469 117.891 151.086 118.094 153.688H121.203V148.375H122.422V162.297H121.203V154.703H118.109C117.961 157.422 116.578 159.125 114.641 159.125C112.594 159.125 111.156 157.25 111.156 154.297C111.156 151.344 112.594 149.469 114.641 149.453ZM114.641 150.547C113.266 150.562 112.328 152.031 112.328 154.297C112.328 156.562 113.266 158.031 114.641 158.031C116 158.031 116.953 156.562 116.953 154.297C116.953 152.031 116 150.562 114.641 150.547ZM136.75 160.938V161.969H127.078V157.656H128.297V160.938H136.75ZM136.375 148.391V158.484H135.172V153.234H132.609V152.219H135.172V148.391H136.375ZM128.641 149.531V150.547H126.328V155.234C127.039 155.219 127.875 155.141 128.797 154.938L128.922 155.953C127.625 156.234 126.609 156.234 125.719 156.234H125.125V149.531H128.641ZM133.281 149.531V150.547H130.641V155.25C131.828 155.234 132.75 155.164 133.812 154.906L133.938 155.922C132.641 156.203 131.625 156.234 130.109 156.234H129.406V149.531H133.281ZM153.797 152.266V153.281H144.312V148.656H145.531V152.266H153.797ZM155.25 154.906V155.922H142.578V154.906H155.25ZM148.906 157.172C151.891 157.172 153.672 158.078 153.688 159.688C153.672 161.297 151.891 162.203 148.906 162.203C145.906 162.203 144.109 161.297 144.109 159.688C144.109 158.078 145.906 157.172 148.906 157.172ZM148.906 158.141C146.672 158.156 145.344 158.703 145.359 159.688C145.344 160.656 146.672 161.25 148.906 161.25C151.109 161.25 152.453 160.656 152.453 159.688C152.453 158.703 151.109 158.156 148.906 158.141ZM163 149.234V153.125H158.219V155.281C160.828 155.281 162.172 155.242 163.812 154.938L163.938 155.953C162.203 156.234 160.797 156.281 157.984 156.281H157V152.188H161.781V150.219H156.969V149.234H163ZM167.922 148.391V156.922H166.688V154.344H163.922V153.328H166.688V151.453H163.922V150.453H166.688V148.391H167.922ZM167.922 157.672V162.297H166.688V158.672H158.562V157.672H167.922ZM176.562 148.625C179.656 148.625 181.469 149.469 181.469 151.016C181.469 152.594 179.656 153.438 176.562 153.453C173.469 153.438 171.641 152.594 171.641 151.016C171.641 149.469 173.469 148.625 176.562 148.625ZM176.562 149.547C174.25 149.547 172.906 150.109 172.922 151.016C172.906 151.984 174.25 152.516 176.562 152.516C178.859 152.516 180.219 151.984 180.219 151.016C180.219 150.109 178.859 149.547 176.562 149.547ZM182.891 154.391V155.391H170.234V154.391H182.891ZM181.266 156.594V159.703H173.016V161.141H181.688V162.109H171.797V158.797H180.062V157.531H171.766V156.594H181.266ZM198.828 148.375V154.031H201.078V155.062H198.828V162.266H197.609V148.375H198.828ZM195.234 149.875C195.234 153.812 193.391 157.391 188.859 159.625L188.172 158.656C191.766 156.867 193.719 154.195 194 150.906H188.812V149.875H195.234ZM213.422 148.375V162.266H212.188V156.281H209.344V155.25H212.188V153.328H209.344V152.297H212.188V148.375H213.422ZM206.719 152.5C206.719 154.672 208.375 157.297 210.359 158.297L209.625 159.234C208.109 158.445 206.773 156.727 206.141 154.812C205.516 156.914 204.156 158.727 202.625 159.578L201.812 158.641C203.797 157.656 205.469 154.984 205.484 152.5V150.828H202.312V149.812H209.891V150.828H206.719V152.5ZM219.453 149.453C221.5 149.469 222.953 151.344 222.969 154.297C222.953 157.25 221.5 159.125 219.453 159.125C217.391 159.125 215.953 157.25 215.953 154.297C215.953 151.344 217.391 149.469 219.453 149.453ZM219.453 150.547C218.078 150.562 217.109 152.031 217.109 154.297C217.109 156.562 218.078 158.031 219.453 158.031C220.844 158.031 221.781 156.562 221.781 154.297C221.781 152.031 220.844 150.562 219.453 150.547ZM228.734 151.875V152.922H226.484V156.016H228.734V157.047H226.484V162.266H225.266V148.375H226.484V151.875H228.734ZM244.328 148.375V154.109H246.656V155.125H244.328V162.266H243.109V148.375H244.328ZM241.766 150.609V151.625H233.5V150.609H237.078V148.547H238.297V150.609H241.766ZM237.703 152.781C239.672 152.781 241.094 154.094 241.109 155.969C241.094 157.844 239.672 159.156 237.703 159.156C235.719 159.156 234.281 157.844 234.297 155.969C234.281 154.094 235.719 152.781 237.703 152.781ZM237.703 153.812C236.406 153.812 235.453 154.719 235.469 155.969C235.453 157.234 236.406 158.125 237.703 158.109C238.984 158.125 239.922 157.234 239.938 155.969C239.922 154.719 238.984 153.812 237.703 153.812ZM258.641 152.594V153.578H249.125V148.891H250.344V152.594H258.641ZM260.109 155.469V156.469H247.391V155.469H260.109ZM258.719 160.906V161.922H249.047V157.891H250.266V160.906H258.719ZM266.203 152.641C266.203 155 267.922 157.391 269.969 158.281L269.281 159.25C267.656 158.508 266.25 156.906 265.609 154.984C264.953 157.023 263.555 158.797 261.969 159.594L261.234 158.625C263.219 157.672 264.953 155.047 264.969 152.641V150.828H261.688V149.812H269.516V150.828H266.203V152.641ZM272.688 148.375V162.266H271.453V148.375H272.688ZM290.594 148.375V156.656H289.359V153.016H286.562V152H289.359V148.375H290.594ZM285.984 157.094C288.875 157.094 290.641 158.031 290.641 159.672C290.641 161.312 288.875 162.25 285.984 162.266C283.094 162.25 281.328 161.312 281.328 159.672C281.328 158.031 283.094 157.094 285.984 157.094ZM285.984 158.047C283.859 158.047 282.531 158.656 282.547 159.672C282.531 160.672 283.859 161.281 285.984 161.281C288.109 161.281 289.422 160.672 289.422 159.672C289.422 158.656 288.109 158.047 285.984 158.047ZM283.906 150.922C283.906 152.734 285.297 154.453 287.328 155.156L286.688 156.141C285.125 155.578 283.914 154.414 283.328 152.969C282.719 154.602 281.43 155.906 279.781 156.531L279.141 155.547C281.203 154.797 282.672 152.922 282.672 150.938V150.422H279.531V149.391H287.016V150.422H283.906V150.922ZM304.375 148.375V162.297H303.156V148.375H304.375ZM300.156 149.672V154.609H294.969V157.891C297.273 157.891 299.328 157.789 301.812 157.391L301.938 158.422C299.375 158.828 297.266 158.922 294.875 158.922H293.719V153.609H298.922V150.688H293.688V149.672H300.156ZM317.594 148.391V152.969H319.688V154H317.594V158.797H316.375V148.391H317.594ZM315.047 150.094V151.094H306.766V150.094H310.297V148.391H311.516V150.094H315.047ZM310.906 151.859C312.891 151.859 314.234 152.875 314.25 154.453C314.234 156.016 312.891 157.016 310.906 157.016C308.906 157.016 307.547 156.016 307.562 154.453C307.547 152.875 308.906 151.859 310.906 151.859ZM310.906 152.828C309.594 152.828 308.719 153.469 308.734 154.453C308.719 155.438 309.594 156.062 310.906 156.047C312.203 156.062 313.078 155.438 313.094 154.453C313.078 153.469 312.203 152.828 310.906 152.828ZM318.234 160.938V161.969H308.906V157.969H310.109V160.938H318.234ZM337.281 155.484V156.5H331.625V159.344H330.406V156.5H324.562V155.484H337.281ZM335.625 149.062V153.891H326.219V149.062H335.625ZM327.422 150.031V152.906H334.406V150.031H327.422ZM335.859 160.938V161.969H326.188V157.969H327.422V160.938H335.859ZM343.297 152.109C343.297 154.625 344.906 157.156 346.922 158.078L346.188 159.078C344.609 158.266 343.305 156.602 342.688 154.625C342.07 156.703 340.766 158.484 339.188 159.328L338.391 158.344C340.422 157.344 342.047 154.672 342.047 152.109V149.578H343.297V152.109ZM349.922 148.375V162.297H348.703V154.125H345.406V153.125H348.703V148.375H349.922ZM363.703 148.375V155.828H362.484V148.375H363.703ZM355.922 156.531V158.219H362.484V156.531H363.703V162.078H354.703V156.531H355.922ZM355.922 161.078H362.484V159.203H355.922V161.078ZM356.203 149.062C358.312 149.047 359.844 150.344 359.844 152.25C359.844 154.141 358.312 155.438 356.203 155.438C354.094 155.438 352.562 154.141 352.562 152.25C352.562 150.344 354.094 149.047 356.203 149.062ZM356.203 150.094C354.781 150.078 353.75 150.984 353.766 152.25C353.75 153.516 354.781 154.422 356.203 154.422C357.609 154.422 358.641 153.516 358.641 152.25C358.641 150.984 357.609 150.078 356.203 150.094ZM377.516 148.375V162.266H376.297V148.375H377.516ZM368.172 149.75V157.625C370.289 157.617 372.484 157.445 374.812 156.953L374.984 158C372.516 158.516 370.312 158.688 368.094 158.688H366.969V149.75H368.172ZM390.641 148.375V153.875H392.969V154.906H390.641V162.297H389.422V148.375H390.641ZM386.984 149.734V150.75H381.719V157.781C384.234 157.781 386.016 157.664 388.078 157.281L388.234 158.344C386.062 158.734 384.234 158.812 381.594 158.812H380.5V149.734H386.984ZM395.188 161.094C394.641 161.094 394.172 160.641 394.188 160.078C394.172 159.531 394.641 159.078 395.188 159.078C395.734 159.078 396.188 159.531 396.188 160.078C396.188 160.641 395.734 161.094 395.188 161.094ZM54.5781 174.344C54.5625 176.203 57.0469 177.781 59.4688 178.141L59.0156 179.109C56.8438 178.742 54.7344 177.586 53.8906 175.906C53.0469 177.586 50.9297 178.742 48.7969 179.109L48.3125 178.141C50.7188 177.781 53.2031 176.203 53.2031 174.344V174.25H48.75V173.25H59.0156V174.25H54.5781V174.344ZM60.2188 180.297V181.312H54.4688V186.266H53.2656V181.312H47.5625V180.297H60.2188ZM74.1094 183.516V184.547H61.3906V183.516H67.1094V180.891H62.9844V176.609H71.2969V174.422H62.9531V173.406H72.5V177.609H64.2031V179.875H72.8281V180.891H68.3125V183.516H74.1094ZM90.0938 172.375V175.781H92.1875V176.812H90.0938V180.266H88.875V172.375H90.0938ZM86.0469 173.328V174.328H81.1094V178.422C83.8984 178.438 85.4844 178.336 87.3438 177.969L87.5 178.969C85.5469 179.359 83.8906 179.438 80.9688 179.438H79.8906V173.328H86.0469ZM90.0938 180.984V186.078H81.3281V180.984H90.0938ZM82.5312 181.984V185.078H88.875V181.984H82.5312ZM103.938 172.375V176H106.016V177.031H103.938V180.672H102.703V172.375H103.938ZM99.4688 180.938C102.297 180.938 104.047 181.922 104.047 183.578C104.047 185.266 102.297 186.234 99.4688 186.234C96.625 186.234 94.8594 185.266 94.8594 183.578C94.8594 181.922 96.625 180.938 99.4688 180.938ZM99.4688 181.953C97.375 181.938 96.0625 182.562 96.0625 183.578C96.0625 184.609 97.375 185.25 99.4688 185.25C101.547 185.25 102.859 184.609 102.859 183.578C102.859 182.562 101.547 181.938 99.4688 181.953ZM99.875 173.438V174.453H94.9062V178.531C97.7188 178.516 99.3438 178.43 101.203 178.047L101.328 179.062C99.3906 179.453 97.7188 179.531 94.7812 179.531H93.7031V173.438H99.875ZM117.75 172.328V175.703H119.859V176.719H117.75V180.016H116.531V172.328H117.75ZM117.75 180.734V183.812H110.125V185.172H118.266V186.109H108.922V182.906H116.531V181.656H108.891V180.734H117.75ZM115.203 173.641V174.625H106.922V173.641H110.453V172.234H111.672V173.641H115.203ZM111.062 175.25C113.078 175.25 114.391 176.125 114.406 177.531C114.391 178.938 113.078 179.812 111.062 179.812C109.031 179.812 107.703 178.938 107.719 177.531C107.703 176.125 109.031 175.25 111.062 175.25ZM111.062 176.156C109.75 176.156 108.875 176.703 108.891 177.531C108.875 178.375 109.75 178.891 111.062 178.891C112.375 178.891 113.234 178.375 113.25 177.531C113.234 176.703 112.375 176.156 111.062 176.156ZM128.562 173.031C130.43 173.016 131.844 174.102 132.109 175.703H135.016V172.375H136.25V179.828H135.016V176.719H132.125C131.875 178.359 130.445 179.453 128.562 179.453C126.453 179.453 124.953 178.141 124.953 176.234C124.953 174.344 126.453 173.016 128.562 173.031ZM128.562 174.078C127.141 174.062 126.125 174.953 126.125 176.234C126.125 177.5 127.141 178.422 128.562 178.422C129.969 178.422 130.969 177.5 130.969 176.234C130.969 174.953 129.969 174.062 128.562 174.078ZM128.531 180.531V182.297H135.016V180.531H136.25V186.078H127.297V180.531H128.531ZM128.531 185.078H135.016V183.281H128.531V185.078ZM151.266 180.453V181.469H145.469V186.266H144.266V181.469H138.547V180.453H151.266ZM149.609 173.156V178.562H140.188V173.156H149.609ZM141.391 174.156V177.594H148.391V174.156H141.391ZM154.672 183.953L153.453 188.203H152.297L153.156 183.953H154.672ZM165.203 176.641C165.188 178.875 166.797 181.328 168.812 182.281L168.109 183.25C166.547 182.492 165.227 180.836 164.609 178.953C163.969 181 162.57 182.797 161.016 183.594L160.266 182.625C162.266 181.656 163.984 179.016 164 176.641V174.828H160.766V173.812H168.328V174.828H165.203V176.641ZM171.25 172.375V178H173.578V179.047H171.25V186.266H170.031V172.375H171.25ZM181.656 173.328C181.656 173.867 181.594 174.383 181.484 174.875H184.609V172.391H185.844V180.672H184.609V178.828H180.922V177.812H184.609V175.891H181.156C180.211 178.078 178.039 179.656 175.031 180.484L174.547 179.5C177.938 178.562 180.086 176.695 180.344 174.328H175.25V173.328H181.656ZM185.844 181.281V186.25H184.609V182.266H176.5V181.281H185.844ZM200.875 183.453V184.484H188.156V183.453H191.312V179.703C190.125 179.086 189.406 178.086 189.406 176.828C189.406 174.672 191.516 173.266 194.484 173.25C197.453 173.266 199.562 174.672 199.562 176.828C199.562 178.062 198.867 179.055 197.719 179.672V183.453H200.875ZM194.484 174.266C192.203 174.25 190.594 175.281 190.594 176.828C190.594 178.375 192.203 179.422 194.484 179.422C196.75 179.422 198.375 178.375 198.375 176.828C198.375 175.281 196.75 174.25 194.484 174.266ZM192.516 183.453H196.484V180.141C195.883 180.305 195.211 180.391 194.484 180.391C193.773 180.391 193.109 180.312 192.516 180.156V183.453ZM213.5 172.391V182.656H212.266V177.703H209.188V176.672H212.266V172.391H213.5ZM209.25 173.453C209.234 177.016 206.688 179.734 202.734 181.031L202.203 180.047C205.406 178.992 207.633 177 207.906 174.484H202.906V173.453H209.25ZM213.859 184.938V185.969H204.656V181.609H205.906V184.938H213.859ZM218.094 183.953L216.875 188.203H215.719L216.578 183.953H218.094ZM236.625 180.344V181.375H230.828V186.266H229.625V181.375H223.906V180.344H236.625ZM230.234 172.938C233.156 172.938 235.125 174.109 235.125 176C235.125 177.844 233.156 179.016 230.234 179.016C227.312 179.016 225.344 177.844 225.344 176C225.344 174.109 227.312 172.938 230.234 172.938ZM230.234 173.938C228.062 173.938 226.594 174.75 226.609 176C226.594 177.234 228.062 178.031 230.234 178.031C232.391 178.031 233.875 177.234 233.875 176C233.875 174.75 232.391 173.938 230.234 173.938ZM249.625 172.375V186.266H248.453V178.984H246.406V185.547H245.281V172.688H246.406V177.969H248.453V172.375H249.625ZM243.469 174.078V175.094H239.484V181.781C241.398 181.773 242.727 181.703 244.266 181.391L244.375 182.422C242.703 182.766 241.281 182.828 239.156 182.828H238.266V174.078H243.469ZM256.234 176.109C256.234 178.562 257.859 181.078 259.828 182.047L259.078 183.031C257.547 182.227 256.266 180.586 255.656 178.656C255.031 180.711 253.719 182.461 252.156 183.297L251.375 182.312C253.406 181.312 255.016 178.641 255.031 176.109V173.578H256.234V176.109ZM262.328 172.375V178.016H264.656V179.078H262.328V186.266H261.109V172.375H262.328ZM276.266 172.375V176.25H278.359V177.297H276.266V181.344H275.047V172.375H276.266ZM271.875 181.438C274.703 181.438 276.422 182.328 276.422 183.844C276.422 185.359 274.703 186.234 271.875 186.234C269.047 186.234 267.312 185.359 267.328 183.844C267.312 182.328 269.047 181.438 271.875 181.438ZM271.875 182.406C269.797 182.406 268.531 182.922 268.547 183.844C268.531 184.75 269.797 185.281 271.875 185.281C273.953 185.281 275.203 184.75 275.203 183.844C275.203 182.922 273.953 182.406 271.875 182.406ZM273.719 173.969V174.938H265.438V173.969H268.969V172.266H270.188V173.969H273.719ZM269.578 175.656C271.578 175.656 272.906 176.625 272.922 178.109C272.906 179.609 271.578 180.562 269.578 180.562C267.562 180.562 266.219 179.609 266.234 178.109C266.219 176.625 267.562 175.656 269.578 175.656ZM269.578 176.578C268.266 176.594 267.391 177.203 267.406 178.109C267.391 179.016 268.266 179.609 269.578 179.609C270.875 179.609 271.75 179.016 271.766 178.109C271.75 177.203 270.875 176.594 269.578 176.578ZM295.922 178.984V180.016H283.25V178.984H295.922ZM294.438 176.656V177.656H284.859V172.938H294.344V173.969H286.062V176.656H294.438ZM289.578 181.234C292.562 181.234 294.344 182.141 294.359 183.734C294.344 185.344 292.562 186.234 289.578 186.234C286.578 186.234 284.781 185.344 284.781 183.734C284.781 182.141 286.578 181.234 289.578 181.234ZM289.578 182.188C287.344 182.203 286.016 182.766 286.031 183.734C286.016 184.719 287.344 185.266 289.578 185.266C291.781 185.266 293.125 184.719 293.125 183.734C293.125 182.766 291.781 182.203 289.578 182.188ZM308.531 172.375V186.297H307.297V172.375H308.531ZM301.141 173.453C303.203 173.469 304.688 175.344 304.688 178.297C304.688 181.25 303.203 183.125 301.141 183.125C299.062 183.125 297.594 181.25 297.594 178.297C297.594 175.344 299.062 173.469 301.141 173.453ZM301.141 174.547C299.75 174.562 298.781 176.031 298.781 178.297C298.781 180.562 299.75 182.031 301.141 182.031C302.531 182.031 303.5 180.562 303.5 178.297C303.5 176.031 302.531 174.562 301.141 174.547ZM327.641 183.5V184.547H314.922V183.5H320.625V180.297H316.078V179.312H318.25V174.75H316.047V173.734H326.422V174.75H324.219V179.312H326.391V180.297H321.828V183.5H327.641ZM319.469 179.312H323.016V174.75H319.469V179.312ZM339.609 172.375V176.078H341.703V177.125H339.609V180.75H338.391V172.375H339.609ZM339.609 181.547V186.078H330.844V181.547H339.609ZM332.047 182.531V185.078H338.391V182.531H332.047ZM337.062 173.859V174.875H328.781V173.859H332.312V172.266H333.531V173.859H337.062ZM332.922 175.562C334.922 175.562 336.25 176.547 336.266 178.031C336.25 179.547 334.922 180.516 332.922 180.516C330.906 180.516 329.562 179.547 329.578 178.031C329.562 176.547 330.906 175.562 332.922 175.562ZM332.922 176.516C331.609 176.516 330.734 177.125 330.75 178.031C330.734 178.984 331.609 179.562 332.922 179.578C334.219 179.562 335.094 178.984 335.109 178.031C335.094 177.125 334.219 176.516 332.922 176.516ZM354.047 172.391V180.375H352.812V172.391H354.047ZM342.625 179.016C343.805 179.016 345.18 179.008 346.609 178.953V177.469H343.891V173.078H350.484V174.094H345.125V176.484H350.609V177.469H347.844V178.906C349.133 178.852 350.438 178.742 351.656 178.578L351.734 179.469C348.688 179.984 345.312 180.031 342.812 180.031L342.625 179.016ZM346.109 181V182.484H352.844V181H354.047V186.078H344.891V181H346.109ZM346.109 185.078H352.844V183.438H346.109V185.078ZM367.859 172.375V186.266H366.641V172.375H367.859ZM358.516 173.75V181.625C360.633 181.617 362.828 181.445 365.156 180.953L365.328 182C362.859 182.516 360.656 182.688 358.438 182.688H357.312V173.75H358.516ZM380.984 172.375V177.875H383.312V178.906H380.984V186.297H379.766V172.375H380.984ZM377.328 173.734V174.75H372.062V181.781C374.578 181.781 376.359 181.664 378.422 181.281L378.578 182.344C376.406 182.734 374.578 182.812 371.938 182.812H370.844V173.734H377.328ZM385.531 185.094C384.984 185.094 384.516 184.641 384.531 184.078C384.516 183.531 384.984 183.078 385.531 183.078C386.078 183.078 386.531 183.531 386.531 184.078C386.531 184.641 386.078 185.094 385.531 185.094Z" fill="black"/>
<defs>
<filter id="filter0_d_4463_18461" x="0" y="0" width="457" height="238" filterUnits="userSpaceOnUse" color-interpolation-filters="sRGB">
<feFlood flood-opacity="0" result="BackgroundImageFix"/>
<feColorMatrix in="SourceAlpha" type="matrix" values="0 0 0 0 0 0 0 0 0 0 0 0 0 0 0 0 0 0 127 0" result="hardAlpha"/>
<feOffset/>
<feGaussianBlur stdDeviation="7.5"/>
<feComposite in2="hardAlpha" operator="out"/>
<feColorMatrix type="matrix" values="0 0 0 0 0 0 0 0 0 0 0 0 0 0 0 0 0 0 0.2 0"/>
<feBlend mode="normal" in2="BackgroundImageFix" result="effect1_dropShadow_4463_18461"/>
<feBlend mode="normal" in="SourceGraphic" in2="effect1_dropShadow_4463_18461" result="shape"/>
</filter>
</defs>
</svg>
