<svg width="28" height="28" viewBox="0 0 28 28" fill="none" xmlns="http://www.w3.org/2000/svg">
<path d="M13.5 10.1538C14.2956 10.1538 15.0587 9.82967 15.6213 9.25264C16.1839 8.6756 16.5 7.89297 16.5 7.07692C16.5 6.26087 16.1839 5.47824 15.6213 4.90121C15.0587 4.32417 14.2956 4 13.5 4C12.7044 4 11.9413 4.32417 11.3787 4.90121C10.8161 5.47824 10.5 6.26087 10.5 7.07692C10.5 7.89297 10.8161 8.6756 11.3787 9.25264C11.9413 9.82967 12.7044 10.1538 13.5 10.1538ZM9 7.46154C9 7.8151 8.9321 8.16519 8.80018 8.49184C8.66827 8.81849 8.47491 9.11528 8.23116 9.36529C7.9874 9.61529 7.69802 9.81361 7.37954 9.94891C7.06106 10.0842 6.71972 10.1538 6.375 10.1538C6.03028 10.1538 5.68894 10.0842 5.37046 9.94891C5.05198 9.81361 4.7626 9.61529 4.51885 9.36529C4.27509 9.11528 4.08173 8.81849 3.94982 8.49184C3.8179 8.16519 3.75 7.8151 3.75 7.46154C3.75 6.74749 4.02656 6.0627 4.51885 5.55779C5.01113 5.05288 5.67881 4.76923 6.375 4.76923C7.07119 4.76923 7.73887 5.05288 8.23116 5.55779C8.72344 6.0627 9 6.74749 9 7.46154ZM23.25 7.46154C23.25 7.8151 23.1821 8.16519 23.0502 8.49184C22.9183 8.81849 22.7249 9.11528 22.4812 9.36529C22.2374 9.61529 21.948 9.81361 21.6295 9.94891C21.3111 10.0842 20.9697 10.1538 20.625 10.1538C20.2803 10.1538 19.9389 10.0842 19.6205 9.94891C19.302 9.81361 19.0126 9.61529 18.7688 9.36529C18.5251 9.11528 18.3317 8.81849 18.1998 8.49184C18.0679 8.16519 18 7.8151 18 7.46154C18 6.74749 18.2766 6.0627 18.7688 5.55779C19.2611 5.05288 19.9288 4.76923 20.625 4.76923C21.3212 4.76923 21.9889 5.05288 22.4812 5.55779C22.9734 6.0627 23.25 6.74749 23.25 7.46154ZM8.53275 11.6923C8.10581 12.2375 7.87369 12.9161 7.875 13.6154V19.3846C7.875 20.3346 8.0985 21.2308 8.49525 22.0208C7.92365 22.329 7.28412 22.4807 6.63861 22.461C5.99309 22.4413 5.36347 22.251 4.81073 21.9085C4.25799 21.5659 3.80086 21.0828 3.48363 20.5059C3.16639 19.9289 2.99981 19.2777 3 18.6154V13.6154C3 13.1054 3.19754 12.6162 3.54917 12.2556C3.90081 11.8949 4.37772 11.6923 4.875 11.6923H8.53275ZM18.5048 22.0208C18.9128 21.2051 19.1254 20.3014 19.125 19.3846V13.6154C19.125 12.8877 18.879 12.2192 18.4672 11.6923H22.125C22.6223 11.6923 23.0992 11.8949 23.4508 12.2556C23.8025 12.6162 24 13.1054 24 13.6154V18.6154C24.0002 19.2777 23.8336 19.9289 23.5164 20.5059C23.1991 21.0828 22.742 21.5659 22.1893 21.9085C21.6365 22.251 21.0069 22.4413 20.3614 22.461C19.7159 22.4807 19.0763 22.329 18.5048 22.0208ZM10.875 11.6923C10.3777 11.6923 9.90081 11.8949 9.54917 12.2556C9.19754 12.6162 9 13.1054 9 13.6154V19.3846C9 20.6087 9.47411 21.7826 10.318 22.6482C11.1619 23.5137 12.3065 24 13.5 24C14.6935 24 15.8381 23.5137 16.682 22.6482C17.5259 21.7826 18 20.6087 18 19.3846V13.6154C18 13.1054 17.8025 12.6162 17.4508 12.2556C17.0992 11.8949 16.6223 11.6923 16.125 11.6923H10.875Z" fill="#898989"/>
</svg>
