<svg width="28" height="28" viewBox="0 0 28 28" fill="none" xmlns="http://www.w3.org/2000/svg">
<path d="M6.27273 24C5.64773 24 5.11288 23.7826 4.66818 23.3478C4.22348 22.913 4.00076 22.3896 4 21.7778V6.22222C4 5.61111 4.22273 5.08815 4.66818 4.65333C5.11364 4.21852 5.64848 4.00074 6.27273 4H13.0909C13.4129 4 13.683 4.10667 13.9011 4.32C14.1193 4.53333 14.228 4.79704 14.2273 5.11111C14.2265 5.42518 14.1174 5.68926 13.9 5.90333C13.6826 6.11741 13.4129 6.2237 13.0909 6.22222H6.27273V21.7778H13.0909C13.4129 21.7778 13.683 21.8844 13.9011 22.0978C14.1193 22.3111 14.228 22.5748 14.2273 22.8889C14.2265 23.2029 14.1174 23.467 13.9 23.6811C13.6826 23.8952 13.4129 24.0015 13.0909 24H6.27273ZM20.108 15.1111H11.9545C11.6326 15.1111 11.3629 15.0044 11.1455 14.7911C10.928 14.5778 10.8189 14.3141 10.8182 14C10.8174 13.6859 10.9265 13.4222 11.1455 13.2089C11.3644 12.9955 11.6341 12.8889 11.9545 12.8889H20.108L17.9773 10.8056C17.7689 10.6018 17.6648 10.3518 17.6648 10.0556C17.6648 9.75925 17.7689 9.5 17.9773 9.27777C18.1856 9.05555 18.4508 8.93963 18.7727 8.93C19.0947 8.92037 19.3693 9.02703 19.5966 9.25L23.6591 13.2222C23.8864 13.4444 24 13.7037 24 14C24 14.2963 23.8864 14.5555 23.6591 14.7778L19.5966 18.75C19.3693 18.9722 19.0996 19.0789 18.7875 19.07C18.4754 19.0611 18.2053 18.9452 17.9773 18.7222C17.7689 18.5 17.6697 18.2363 17.6795 17.9311C17.6894 17.6259 17.7981 17.3711 18.0057 17.1667L20.108 15.1111Z" fill="black"/>
</svg>
