<svg width="28" height="28" viewBox="0 0 28 28" fill="none" xmlns="http://www.w3.org/2000/svg">
<path d="M5.80827 15.214V18.2905C5.80827 19.0898 6.24621 19.8343 6.94692 20.2175L12.4212 23.2064C13.0781 23.5677 13.8664 23.5677 14.5233 23.2064L19.9975 20.2175C20.6982 19.8343 21.1362 19.0898 21.1362 18.2905V15.214L14.5233 18.827C13.8664 19.1883 13.0781 19.1883 12.4212 18.827L5.80827 15.214ZM12.4212 4.63776L3.19158 9.67407C2.43614 10.0901 2.43614 11.185 3.19158 11.601L12.4212 16.6373C13.0781 16.9986 13.8664 16.9986 14.5233 16.6373L23.3259 11.8309V18.3015C23.3259 18.9036 23.8185 19.3963 24.4207 19.3963C25.0229 19.3963 25.5156 18.9036 25.5156 18.3015V11.2835C25.5156 10.8784 25.2966 10.5171 24.9462 10.32L14.5233 4.63776C14.1998 4.46524 13.8388 4.375 13.4722 4.375C13.1056 4.375 12.7446 4.46524 12.4212 4.63776Z" fill="#898989"/>
</svg>
