<svg width="149" height="40" viewBox="0 0 149 40" fill="none" xmlns="http://www.w3.org/2000/svg">
<rect x="1" y="1" width="147" height="38" rx="6" fill="#BAE5E4"/>
<rect x="1" y="1" width="147" height="38" rx="6" stroke="#BAE5E4"/>
<path d="M46.1113 11.6211V17.5625H48.4668V19.3906H46.1113V27.6523H43.8613V11.6211H46.1113ZM41.6289 13.0977V14.9082H36.3555V21.9219C38.6758 21.8955 40.5918 21.79 42.7188 21.4121L42.9648 23.293C40.4863 23.7148 38.3066 23.7852 35.4766 23.7676H34.123V13.0977H41.6289ZM56.3418 11.9199C59.8926 11.9199 62.1426 13.0977 62.1602 15.0488C62.1426 16.9824 59.8926 18.1602 56.3418 18.1426C52.8086 18.1602 50.5059 16.9824 50.5059 15.0488C50.5059 13.0977 52.8086 11.9199 56.3418 11.9199ZM56.3418 13.6602C54.1094 13.6602 52.8262 14.1348 52.8438 15.0488C52.8262 15.9453 54.1094 16.4023 56.3418 16.4023C58.5566 16.4023 59.8398 15.9453 59.8398 15.0488C59.8398 14.1348 58.5566 13.6602 56.3418 13.6602ZM61.8965 21.9922V27.4414H50.7344V21.9922H61.8965ZM52.9492 23.7676V25.6484H59.6992V23.7676H52.9492ZM63.6367 19.0742V20.8672H49.0469V19.0742H63.6367ZM71.8984 12.4297C75.2734 12.4473 77.9102 14.2578 77.9277 17.0352C77.9102 19.8301 75.2734 21.6582 71.8984 21.6406C68.5059 21.6582 65.8867 19.8301 65.8867 17.0352C65.8867 14.2578 68.5059 12.4473 71.8984 12.4297ZM71.8984 14.2578C69.6836 14.2402 68.0664 15.3125 68.0664 17.0352C68.0664 18.7754 69.6836 19.8125 71.8984 19.8125C74.1133 19.8125 75.6953 18.7754 75.7129 17.0352C75.6953 15.3125 74.1133 14.2402 71.8984 14.2578ZM79.2461 23.8555V25.666H64.6035V23.8555H79.2461ZM94.8027 23.9961V25.8418H80.1602V23.9961H86.3301V21.5879H81.8477V16.209H90.9004V14.4512H81.8301V12.6582H93.1152V17.9668H84.0977V19.7598H93.4844V21.5879H88.5625V23.9961H94.8027ZM108.074 25.877L106.65 24.4707L110.447 20.6738H101.518V18.5996H110.447L106.65 14.8203L108.074 13.4141L114.314 19.6367L108.074 25.877Z" fill="white"/>
</svg>
