<svg width="80" height="80" viewBox="0 0 80 80" fill="none" xmlns="http://www.w3.org/2000/svg">
<path d="M27.5564 48.9333C26.9431 48.9333 26.5297 48.9933 26.3164 49.0533V52.98C26.5697 53.04 26.8864 53.0567 27.3231 53.0567C28.9197 53.0567 29.9031 52.25 29.9031 50.8867C29.9031 49.6667 29.0564 48.9333 27.5564 48.9333ZM39.1797 48.9733C38.5131 48.9733 38.0797 49.0333 37.8231 49.0933V57.7933C38.0797 57.8533 38.4931 57.8534 38.8664 57.8534C41.5897 57.8734 43.3631 56.3733 43.3631 53.2C43.3831 50.4333 41.7664 48.9733 39.1797 48.9733Z" fill="#E7E7E7"/>
<path d="M46.6673 6.66663H20.0007C18.2325 6.66663 16.5368 7.369 15.2866 8.61925C14.0364 9.86949 13.334 11.5652 13.334 13.3333V66.6666C13.334 68.4347 14.0364 70.1304 15.2866 71.3807C16.5368 72.6309 18.2325 73.3333 20.0007 73.3333H60.0006C61.7688 73.3333 63.4645 72.6309 64.7147 71.3807C65.9649 70.1304 66.6673 68.4347 66.6673 66.6666V26.6666L46.6673 6.66663ZM31.6607 53.9666C30.6307 54.9333 29.1107 55.3666 27.3406 55.3666C26.9974 55.3731 26.6542 55.353 26.314 55.3066V60.06H23.334V46.94C24.6789 46.7399 26.0377 46.6485 27.3973 46.6666C29.254 46.6666 30.574 47.02 31.464 47.73C32.3107 48.4033 32.884 49.5066 32.884 50.8066C32.8806 52.1133 32.4473 53.2166 31.6607 53.9666ZM44.3507 58.4833C42.9507 59.6466 40.8207 60.2 38.2173 60.2C36.6573 60.2 35.554 60.1 34.804 60V46.9433C36.1494 46.7476 37.5078 46.6551 38.8673 46.6666C41.3906 46.6666 43.0307 47.12 44.3107 48.0866C45.694 49.1133 46.5606 50.75 46.5606 53.1C46.5606 55.6433 45.6306 57.4 44.3507 58.4833ZM56.6673 49.2333H51.5606V52.27H56.334V54.7166H51.5606V60.0633H48.5406V46.7666H56.6673V49.2333ZM46.6673 30H43.334V13.3333L60.0006 30H46.6673Z" fill="#E7E7E7"/>
</svg>
