<svg width="20" height="20" viewBox="0 0 20 20" fill="none" xmlns="http://www.w3.org/2000/svg">
<path d="M6.89008 12.2333C6.73674 12.2333 6.63341 12.2483 6.58008 12.2633V13.2449C6.64341 13.2599 6.72258 13.2641 6.83174 13.2641C7.23091 13.2641 7.47674 13.0624 7.47674 12.7216C7.47674 12.4166 7.26508 12.2333 6.89008 12.2333ZM9.79591 12.2433C9.62924 12.2433 9.52091 12.2583 9.45674 12.2733V14.4483C9.52091 14.4633 9.62424 14.4633 9.71758 14.4633C10.3984 14.4683 10.8417 14.0933 10.8417 13.2999C10.8467 12.6083 10.4426 12.2433 9.79591 12.2433Z" fill="#F84251"/>
<path d="M11.6673 1.66663H5.00065C4.55862 1.66663 4.1347 1.84222 3.82214 2.15478C3.50958 2.46734 3.33398 2.89127 3.33398 3.33329V16.6666C3.33398 17.1087 3.50958 17.5326 3.82214 17.8451C4.1347 18.1577 4.55862 18.3333 5.00065 18.3333H15.0007C15.4427 18.3333 15.8666 18.1577 16.1792 17.8451C16.4917 17.5326 16.6673 17.1087 16.6673 16.6666V6.66663L11.6673 1.66663ZM7.91565 13.4916C7.65815 13.7333 7.27815 13.8416 6.83565 13.8416C6.74984 13.8432 6.66403 13.8382 6.57898 13.8266V15.015H5.83398V11.735C6.17021 11.685 6.50992 11.6621 6.84982 11.6666C7.31398 11.6666 7.64398 11.755 7.86648 11.9325C8.07815 12.1008 8.22148 12.3766 8.22148 12.7016C8.22065 13.0283 8.11232 13.3041 7.91565 13.4916ZM11.0882 14.6208C10.7382 14.9116 10.2057 15.05 9.55482 15.05C9.16482 15.05 8.88898 15.025 8.70148 15V11.7358C9.03784 11.6869 9.37744 11.6638 9.71732 11.6666C10.3482 11.6666 10.7582 11.78 11.0782 12.0216C11.424 12.2783 11.6407 12.6875 11.6407 13.275C11.6407 13.9108 11.4082 14.35 11.0882 14.6208ZM14.1673 12.3083H12.8907V13.0675H14.084V13.6791H12.8907V15.0158H12.1357V11.6916H14.1673V12.3083ZM11.6673 7.49996H10.834V3.33329L15.0007 7.49996H11.6673Z" fill="#F84251"/>
</svg>
