<svg width="21" height="21" viewBox="0 0 21 21" fill="none" xmlns="http://www.w3.org/2000/svg">
<path d="M14.3687 1.52718C13.3864 0.542341 12.0144 0 10.5 0C8.97754 0 7.60097 0.539059 6.62318 1.5178C5.6348 2.50733 5.15322 3.85216 5.2663 5.30434C5.49043 8.16933 7.83822 10.4999 10.5 10.4999C13.1618 10.4999 15.5055 8.1698 15.7332 5.30528C15.8478 3.86623 15.3632 2.5242 14.3687 1.52718ZM19.3844 20.9999H1.61563C1.38305 21.0027 1.15273 20.9573 0.941408 20.8671C0.73009 20.7768 0.543095 20.644 0.394028 20.4782C0.0659119 20.1139 -0.0663441 19.6166 0.0315859 19.1136C0.457632 16.919 1.78726 15.0754 3.87711 13.7812C5.73374 12.6323 8.08557 11.9999 10.5 11.9999C12.9144 11.9999 15.2663 12.6327 17.1229 13.7812C19.2127 15.0749 20.5424 16.9185 20.9684 19.1132C21.0663 19.6161 20.9341 20.1135 20.606 20.4777C20.457 20.6436 20.27 20.7765 20.0587 20.8669C19.8473 20.9572 19.617 21.0026 19.3844 20.9999Z" fill="#898989"/>
</svg>
