<svg width="103" height="44" viewBox="0 0 103 44" fill="none" xmlns="http://www.w3.org/2000/svg">
<g filter="url(#filter0_d_4542_19149)">
<rect x="3" y="3" width="95" height="36" rx="18" fill="white" shape-rendering="crispEdges"/>
<g filter="url(#filter1_d_4542_19149)">
<circle cx="22" cy="21" r="14" fill="#BAEBEB"/>
<ellipse cx="22.0008" cy="16.8" rx="4.2" ry="4.2" fill="white"/>
<path d="M22 22.3988C27.4603 22.3988 31.9447 25.8729 32.4502 30.3129C29.8862 33.1878 26.1553 34.9994 22 34.9994C17.8445 34.9994 14.1128 33.188 11.5488 30.3129C12.0542 25.8728 16.5396 22.3988 22 22.3988Z" fill="white"/>
</g>
<path d="M52.1484 15.2812C52.1484 18.7969 49.5703 21.2812 45.4766 22.375L44.9766 21.4062C48.4141 20.5 50.5781 18.6641 50.8516 16.2812H45.7109V15.2812H52.1484ZM56.2891 14.3906V22.2344H55.0703V14.3906H56.2891ZM56.2891 22.9062V28.0781H47.2578V22.9062H56.2891ZM48.4609 23.8906V27.0781H55.0859V23.8906H48.4609ZM70.1016 14.375V28.2969H68.8672V14.375H70.1016ZM60.6797 15.5625V19.2344H64.8203V15.5625H66.0234V24.9375H59.4609V15.5625H60.6797ZM60.6797 23.9062H64.8203V20.2188H60.6797V23.9062ZM83.9297 14.375V28.2656H82.7109V14.375H83.9297ZM74.5859 15.75V23.625C76.7031 23.6172 78.8984 23.4453 81.2266 22.9531L81.3984 24C78.9297 24.5156 76.7266 24.6875 74.5078 24.6875H73.3828V15.75H74.5859Z" fill="black"/>
</g>
<defs>
<filter id="filter0_d_4542_19149" x="0" y="0" width="103" height="44" filterUnits="userSpaceOnUse" color-interpolation-filters="sRGB">
<feFlood flood-opacity="0" result="BackgroundImageFix"/>
<feColorMatrix in="SourceAlpha" type="matrix" values="0 0 0 0 0 0 0 0 0 0 0 0 0 0 0 0 0 0 127 0" result="hardAlpha"/>
<feOffset dx="1" dy="1"/>
<feGaussianBlur stdDeviation="2"/>
<feComposite in2="hardAlpha" operator="out"/>
<feColorMatrix type="matrix" values="0 0 0 0 0 0 0 0 0 0 0 0 0 0 0 0 0 0 0.25 0"/>
<feBlend mode="normal" in2="BackgroundImageFix" result="effect1_dropShadow_4542_19149"/>
<feBlend mode="normal" in="SourceGraphic" in2="effect1_dropShadow_4542_19149" result="shape"/>
</filter>
<filter id="filter1_d_4542_19149" x="5" y="4" width="36" height="36" filterUnits="userSpaceOnUse" color-interpolation-filters="sRGB">
<feFlood flood-opacity="0" result="BackgroundImageFix"/>
<feColorMatrix in="SourceAlpha" type="matrix" values="0 0 0 0 0 0 0 0 0 0 0 0 0 0 0 0 0 0 127 0" result="hardAlpha"/>
<feOffset dx="1" dy="1"/>
<feGaussianBlur stdDeviation="2"/>
<feComposite in2="hardAlpha" operator="out"/>
<feColorMatrix type="matrix" values="0 0 0 0 0 0 0 0 0 0 0 0 0 0 0 0 0 0 0.1 0"/>
<feBlend mode="normal" in2="BackgroundImageFix" result="effect1_dropShadow_4542_19149"/>
<feBlend mode="normal" in="SourceGraphic" in2="effect1_dropShadow_4542_19149" result="shape"/>
</filter>
</defs>
</svg>
