<svg width="157" height="32" viewBox="0 0 157 32" fill="none" xmlns="http://www.w3.org/2000/svg">
<path d="M64.9902 20.793V22.6094H48.8574V20.793H64.9902ZM63.584 8.72266V10.4609H61.0059V16.0859H63.5254V17.8047H50.2441V16.0859H52.7246V10.4609H50.1855V8.72266H63.584ZM54.8926 16.0859H58.8574V10.4609H54.8926V16.0859ZM82.2754 20.8906V22.6875H66.1426V20.8906H73.0957V18.0195H68.0566V12.2383H78.2129V10.0508H68.0176V8.29297H80.3613V13.957H70.2246V16.2422H80.7715V18.0195H75.2441V20.8906H82.2754ZM95.0488 7.45312V17.7266H92.9785V13.2734H90.7715V11.5156H92.9785V7.45312H95.0488ZM88.877 10.8711C88.877 12.7656 89.9316 14.6797 92.1777 15.5781L91.084 17.2383C89.5215 16.6328 88.4668 15.5 87.8613 14.1328C87.2168 15.666 86.0938 16.9258 84.4238 17.6094L83.291 15.9102C85.6543 14.9727 86.7676 12.8828 86.7676 10.8711V10.168H83.7988V8.42969H91.6699V10.168H88.877V10.8711ZM98.5254 7.08203V17.8438H96.4551V7.08203H98.5254ZM98.5254 18.5469V24.7383H96.3574V20.2852H86.4355V18.5469H98.5254ZM115.068 16.3398V18.0586H102.686V8.46875H114.912V10.2266H104.893V12.3555H114.502V14.0547H104.893V16.3398H115.068ZM116.846 20.8125V22.5898H100.713V20.8125H116.846ZM129.17 10.207C129.17 12.5508 130.576 14.8359 133.311 15.7734L132.119 17.4727C130.215 16.75 128.848 15.373 128.115 13.6445C127.344 15.5781 125.908 17.1113 123.838 17.8828L122.686 16.1641C125.518 15.207 126.963 12.7656 126.982 10.1875V8.17578H129.17V10.207ZM137.529 7.10156V20.207H135.361V12.7656H131.846V10.9883H135.361V7.10156H137.529ZM137.92 22.6289V24.3867H125.889V18.7812H128.096V22.6289H137.92ZM147.627 8.3125V10.0508H142.783V11.7695H147.451V13.4297H142.783V15.2852C144.941 15.2656 146.436 15.1777 148.154 14.8555L148.389 16.6133C146.318 17.0039 144.6 17.0625 141.865 17.0625H140.693V8.3125H147.627ZM155.127 7.10156V17.8438H153.057V13.2539H151.221V17.707H149.189V7.43359H151.221V11.5156H153.057V7.10156H155.127ZM155.127 18.625V24.7383H152.959V20.3828H143.037V18.625H155.127Z" fill="#898989"/>
<circle cx="16" cy="16" r="16" fill="#BBBBBB"/>
<path d="M12.0088 22L11.9912 20.084L16.5615 15.8828C17.7568 14.7402 18.3896 14.0371 18.3896 13.0352C18.3896 11.9102 17.5283 11.207 16.3682 11.207C15.1729 11.207 14.3994 11.9629 14.3994 13.1758H11.8857C11.8682 10.6797 13.7139 9.09766 16.4033 9.09766C19.1279 9.09766 20.9385 10.6445 20.9385 12.8594C20.9385 14.3008 20.2354 15.4961 17.6162 17.8691L15.6826 19.75V19.8203H21.1143V22H12.0088Z" fill="white"/>
</svg>
