<svg width="28" height="28" viewBox="0 0 28 28" fill="none" xmlns="http://www.w3.org/2000/svg">
<path d="M12.5781 22.75C12.5781 22.75 11.1562 22.75 11.1562 21.2917C11.1562 19.8333 12.5781 15.4583 18.2656 15.4583C23.9531 15.4583 25.375 19.8333 25.375 21.2917C25.375 22.75 23.9531 22.75 23.9531 22.75H12.5781ZM18.2656 14C19.3969 14 20.4819 13.5391 21.2819 12.7186C22.0818 11.8981 22.5312 10.7853 22.5312 9.625C22.5312 8.46468 22.0818 7.35188 21.2819 6.53141C20.4819 5.71094 19.3969 5.25 18.2656 5.25C17.1343 5.25 16.0493 5.71094 15.2494 6.53141C14.4494 7.35188 14 8.46468 14 9.625C14 10.7853 14.4494 11.8981 15.2494 12.7186C16.0493 13.5391 17.1343 14 18.2656 14ZM10.0415 22.75C9.83081 22.2947 9.7257 21.7956 9.73438 21.2917C9.73438 19.3156 10.7013 17.2812 12.4871 15.8667C11.5959 15.5844 10.6671 15.4466 9.73438 15.4583C4.04688 15.4583 2.625 19.8333 2.625 21.2917C2.625 22.75 4.04688 22.75 4.04688 22.75H10.0415ZM9.02344 14C9.9662 14 10.8703 13.6159 11.537 12.9322C12.2036 12.2484 12.5781 11.3211 12.5781 10.3542C12.5781 9.38723 12.2036 8.4599 11.537 7.77617C10.8703 7.09245 9.9662 6.70833 9.02344 6.70833C8.08068 6.70833 7.17653 7.09245 6.50989 7.77617C5.84326 8.4599 5.46875 9.38723 5.46875 10.3542C5.46875 11.3211 5.84326 12.2484 6.50989 12.9322C7.17653 13.6159 8.08068 14 9.02344 14Z" fill="#898989"/>
</svg>
