<svg width="30" height="30" viewBox="0 0 30 30" fill="none" xmlns="http://www.w3.org/2000/svg">
<rect width="30" height="30" rx="2" fill="#81D7D4"/>
<path d="M9.2 16.4C8.88174 16.4 8.57652 16.2736 8.35147 16.0485C8.12643 15.8235 8 15.5183 8 15.2C8 14.8817 8.12643 14.5765 8.35147 14.3515C8.57652 14.1264 8.88174 14 9.2 14H21.2C21.5183 14 21.8235 14.1264 22.0485 14.3515C22.2736 14.5765 22.4 14.8817 22.4 15.2C22.4 15.5183 22.2736 15.8235 22.0485 16.0485C21.8235 16.2736 21.5183 16.4 21.2 16.4H9.2Z" fill="white"/>
<path d="M14 9.2C14 8.88174 14.1264 8.57652 14.3515 8.35147C14.5765 8.12643 14.8817 8 15.2 8C15.5183 8 15.8235 8.12643 16.0485 8.35147C16.2736 8.57652 16.4 8.88174 16.4 9.2V21.2C16.4 21.5183 16.2736 21.8235 16.0485 22.0485C15.8235 22.2736 15.5183 22.4 15.2 22.4C14.8817 22.4 14.5765 22.2736 14.3515 22.0485C14.1264 21.8235 14 21.5183 14 21.2V9.2Z" fill="white"/>
</svg>
