<svg width="28" height="28" viewBox="0 0 28 28" fill="none" xmlns="http://www.w3.org/2000/svg">
<path d="M3 6.49951C3 5.12087 4.09637 4 5.44487 4H11.557V8.99902C11.557 9.6903 12.1033 10.2488 12.7795 10.2488H17.6692V15.158L14.3534 18.5479C13.9599 18.9502 13.6848 19.4501 13.5511 20.0008L12.8368 22.926C12.7489 23.2853 12.768 23.6602 12.8864 24L5.44487 23.9961C4.09637 23.9961 3 22.8752 3 21.4966V6.49951ZM17.6692 8.99902H12.7795V4L17.6692 8.99902ZM24.003 13.2052L24.553 13.7676C25.149 14.3769 25.149 15.365 24.553 15.9781L23.4299 17.1263L20.7177 14.3534L21.8408 13.2052C22.4367 12.596 23.4032 12.596 24.003 13.2052ZM14.9149 20.2859L19.8505 15.24L22.5628 18.0129L17.6272 23.0549C17.4706 23.215 17.2757 23.3283 17.058 23.3829L14.7621 23.9688C14.552 24.0234 14.3343 23.9609 14.1815 23.8047C14.0287 23.6485 13.9675 23.4259 14.021 23.2111L14.594 20.8639C14.6475 20.6452 14.7583 20.4421 14.9149 20.282V20.2859Z" fill="#898989"/>
</svg>
