<svg width="24" height="22" viewBox="0 0 24 22" fill="none" xmlns="http://www.w3.org/2000/svg">
<path fill-rule="evenodd" clip-rule="evenodd" d="M10.8756 0.383206C11.1709 0.153689 11.533 0.020368 11.9105 0.0021517C12.2881 -0.0160646 12.662 0.0817486 12.9792 0.281718L13.1244 0.383206L18.2988 4.4077C18.5513 4.60385 18.7604 4.84754 18.9136 5.12416C19.0668 5.40079 19.1609 5.70464 19.1904 6.0175L19.2 6.22864V19.667H20.4V9.75153C20.4 9.61502 20.4492 9.48282 20.5391 9.37794C20.629 9.27307 20.7539 9.20218 20.892 9.1776L21 9.16827H21.6C22.2055 9.16809 22.7887 9.39039 23.2327 9.79061C23.6766 10.1908 23.9486 10.7394 23.994 11.3263L24 11.5013V20.7168C23.9999 21.0328 23.8798 21.3377 23.6628 21.5729C23.4458 21.8082 23.1471 21.9574 22.824 21.9918L22.68 22H1.32C0.994731 22.0002 0.680852 21.8836 0.438575 21.6726C0.196298 21.4616 0.0426841 21.1711 0.00720017 20.8568L1.20322e-07 20.7168V11.5013C-0.000191495 10.9127 0.228488 10.3458 0.640196 9.91421C1.05191 9.48262 1.61621 9.21825 2.22 9.17411L2.4 9.16827H3C3.14043 9.16823 3.27643 9.21607 3.38431 9.30346C3.49219 9.39085 3.56512 9.51226 3.5904 9.64655L3.6 9.75153V19.667H4.8V6.22864C4.79998 5.91448 4.86523 5.60355 4.99184 5.3145C5.11845 5.02545 5.30381 4.76423 5.5368 4.54652L5.7012 4.40654L10.8756 0.383206ZM12 8.00059C11.3635 8.00059 10.753 8.24639 10.3029 8.68392C9.85286 9.12145 9.6 9.71487 9.6 10.3336C9.6 10.9524 9.85286 11.5458 10.3029 11.9833C10.753 12.4209 11.3635 12.6667 12 12.6667C12.6365 12.6667 13.247 12.4209 13.6971 11.9833C14.1471 11.5458 14.4 10.9524 14.4 10.3336C14.4 9.71487 14.1471 9.12145 13.6971 8.68392C13.247 8.24639 12.6365 8.00059 12 8.00059Z" fill="#898989"/>
</svg>
