<svg width="28" height="29" viewBox="0 0 28 29" fill="none" xmlns="http://www.w3.org/2000/svg">
<path fill-rule="evenodd" clip-rule="evenodd" d="M5.83332 12.1667C5.83332 10.6196 6.4479 9.13584 7.54186 8.04188C8.63583 6.94792 10.1196 6.33333 11.6667 6.33333C13.2137 6.33333 14.6975 6.94792 15.7914 8.04188C16.8854 9.13584 17.5 10.6196 17.5 12.1667C17.5 13.7138 16.8854 15.1975 15.7914 16.2915C14.6975 17.3854 13.2137 18 11.6667 18C10.1196 18 8.63583 17.3854 7.54186 16.2915C6.4479 15.1975 5.83332 13.7138 5.83332 12.1667ZM11.6667 4C10.3731 4 9.0981 4.30727 7.94656 4.8965C6.79503 5.48574 5.79994 6.34008 5.04322 7.38917C4.28651 8.43827 3.78982 9.65211 3.59406 10.9307C3.3983 12.2094 3.50907 13.5162 3.91725 14.7437C4.32542 15.9711 5.01932 17.084 5.94181 17.9908C6.86431 18.8976 7.989 19.5722 9.22328 19.9592C10.4576 20.3463 11.7661 20.4345 13.0412 20.2168C14.3163 19.9991 15.5214 19.4816 16.5573 18.707L22.5073 24.6582C22.7261 24.8771 23.0228 25.0001 23.3323 25.0002C23.6418 25.0003 23.9387 24.8775 24.1576 24.6588C24.3765 24.44 24.4995 24.1432 24.4996 23.8337C24.4997 23.5243 24.3769 23.2274 24.1582 23.0085L18.2082 17.0585C19.1162 15.8446 19.6685 14.4019 19.8031 12.8919C19.9377 11.382 19.6494 9.86435 18.9704 8.50894C18.2915 7.15354 17.2486 6.01388 15.9587 5.21754C14.6687 4.4212 13.1826 3.99962 11.6667 4Z" fill="black"/>
</svg>
