<svg width="28" height="28" viewBox="0 0 28 28" fill="none" xmlns="http://www.w3.org/2000/svg">
<path d="M8.75 2.71875C8.75 2.52813 8.66659 2.34531 8.51813 2.21052C8.36966 2.07573 8.1683 2 7.95833 2C7.74837 2 7.54701 2.07573 7.39854 2.21052C7.25007 2.34531 7.16667 2.52813 7.16667 2.71875V3.4375H6.375C5.74511 3.4375 5.14102 3.66468 4.69562 4.06905C4.25022 4.47343 4 5.02188 4 5.59375V22.8438C4 23.4156 4.25022 23.9641 4.69562 24.3684C5.14102 24.7728 5.74511 25 6.375 25H15.0833V19.9688C15.0833 19.3969 15.3336 18.8484 15.779 18.444C16.2244 18.0397 16.8284 17.8125 17.4583 17.8125H23V5.59375C23 5.02188 22.7498 4.47343 22.3044 4.06905C21.859 3.66468 21.2549 3.4375 20.625 3.4375H19.8333V2.71875C19.8333 2.52813 19.7499 2.34531 19.6015 2.21052C19.453 2.07573 19.2516 2 19.0417 2C18.8317 2 18.6303 2.07573 18.4819 2.21052C18.3334 2.34531 18.25 2.52813 18.25 2.71875V3.4375H14.2917V2.71875C14.2917 2.52813 14.2083 2.34531 14.0598 2.21052C13.9113 2.07573 13.71 2 13.5 2C13.29 2 13.0887 2.07573 12.9402 2.21052C12.7917 2.34531 12.7083 2.52813 12.7083 2.71875V3.4375H8.75V2.71875ZM8.75 9.90625C8.75 9.71563 8.83341 9.53281 8.98187 9.39802C9.13034 9.26323 9.3317 9.1875 9.54167 9.1875H17.4583C17.6683 9.1875 17.8697 9.26323 18.0181 9.39802C18.1666 9.53281 18.25 9.71563 18.25 9.90625C18.25 10.0969 18.1666 10.2797 18.0181 10.4145C17.8697 10.5493 17.6683 10.625 17.4583 10.625H9.54167C9.3317 10.625 9.13034 10.5493 8.98187 10.4145C8.83341 10.2797 8.75 10.0969 8.75 9.90625ZM9.54167 13.5H17.4583C17.6683 13.5 17.8697 13.5757 18.0181 13.7105C18.1666 13.8453 18.25 14.0281 18.25 14.2188C18.25 14.4094 18.1666 14.5922 18.0181 14.727C17.8697 14.8618 17.6683 14.9375 17.4583 14.9375H9.54167C9.3317 14.9375 9.13034 14.8618 8.98187 14.727C8.83341 14.5922 8.75 14.4094 8.75 14.2188C8.75 14.0281 8.83341 13.8453 8.98187 13.7105C9.13034 13.5757 9.3317 13.5 9.54167 13.5ZM8.75 18.5312C8.75 18.3406 8.83341 18.1578 8.98187 18.023C9.13034 17.8882 9.3317 17.8125 9.54167 17.8125H12.7083C12.9183 17.8125 13.1197 17.8882 13.2681 18.023C13.4166 18.1578 13.5 18.3406 13.5 18.5312C13.5 18.7219 13.4166 18.9047 13.2681 19.0395C13.1197 19.1743 12.9183 19.25 12.7083 19.25H9.54167C9.3317 19.25 9.13034 19.1743 8.98187 19.0395C8.83341 18.9047 8.75 18.7219 8.75 18.5312ZM22.5092 19.25H17.4583C17.2484 19.25 17.047 19.3257 16.8985 19.4605C16.7501 19.5953 16.6667 19.7781 16.6667 19.9688V24.5544C16.7479 24.4969 16.825 24.4346 16.8978 24.3675L22.3049 19.4599C22.3788 19.3928 22.4479 19.3228 22.5092 19.25Z" fill="#898989"/>
</svg>
