<svg width="32" height="32" viewBox="0 0 32 32" fill="none" xmlns="http://www.w3.org/2000/svg">
<circle cx="16" cy="16" r="16" fill="#898989"/>
<path d="M21 7.33989C22.5083 8.21075 23.7629 9.46042 24.6398 10.9652C25.5167 12.47 25.9854 14.1777 25.9994 15.9192C26.0135 17.6608 25.5725 19.3758 24.72 20.8946C23.8676 22.4133 22.6332 23.6831 21.1392 24.5782C19.6452 25.4733 17.9434 25.9627 16.2021 25.998C14.4608 26.0332 12.7406 25.6131 11.2116 24.7791C9.68256 23.9452 8.39787 22.7264 7.48467 21.2434C6.57146 19.7604 6.06141 18.0646 6.005 16.3239L6 15.9999L6.005 15.6759C6.061 13.9489 6.56355 12.2659 7.46364 10.7909C8.36373 9.31592 9.63065 8.09934 11.1409 7.25977C12.6511 6.42021 14.3531 5.98629 16.081 6.00033C17.8089 6.01437 19.5036 6.47589 21 7.33989ZM16 9.99989C15.7551 9.99992 15.5187 10.0898 15.3356 10.2526C15.1526 10.4154 15.0357 10.6396 15.007 10.8829L15 10.9999V15.9999L15.009 16.1309C15.0318 16.3044 15.0997 16.4689 15.206 16.6079L15.293 16.7079L18.293 19.7079L18.387 19.7899C18.5624 19.926 18.778 19.9998 19 19.9998C19.222 19.9998 19.4376 19.926 19.613 19.7899L19.707 19.7069L19.79 19.6129C19.9261 19.4375 19.9999 19.2219 19.9999 18.9999C19.9999 18.7779 19.9261 18.5623 19.79 18.3869L19.707 18.2929L17 15.5849V10.9999L16.993 10.8829C16.9643 10.6396 16.8474 10.4154 16.6644 10.2526C16.4813 10.0898 16.2449 9.99992 16 9.99989Z" fill="#F8F8F8"/>
</svg>
