<svg width="1122" height="300" viewBox="0 0 1122 300" fill="none" xmlns="http://www.w3.org/2000/svg">
<g filter="url(#filter0_d_5325_18291)">
<path d="M1107 268.999C1107 277.836 1099.84 284.999 1091 284.999L69 284.999C60.1634 284.999 53 277.836 53 268.999L53 100.964C53 98.2418 47.3751 95.1543 45.0166 93.7941L18.0049 78.215C14.0037 75.9071 13.9994 70.1344 17.9971 67.8234L44.9863 52.2248C47.3347 50.8676 53 47.7519 53 45.0395L53 30.9992C53 22.1627 60.1635 14.9992 69 14.9992L1091 14.9993C1099.84 14.9993 1107 22.1627 1107 30.9993L1107 268.999Z" fill="white"/>
</g>
<defs>
<filter id="filter0_d_5325_18291" x="0" y="-0.000732422" width="1122" height="300" filterUnits="userSpaceOnUse" color-interpolation-filters="sRGB">
<feFlood flood-opacity="0" result="BackgroundImageFix"/>
<feColorMatrix in="SourceAlpha" type="matrix" values="0 0 0 0 0 0 0 0 0 0 0 0 0 0 0 0 0 0 127 0" result="hardAlpha"/>
<feOffset/>
<feGaussianBlur stdDeviation="7.5"/>
<feComposite in2="hardAlpha" operator="out"/>
<feColorMatrix type="matrix" values="0 0 0 0 0 0 0 0 0 0 0 0 0 0 0 0 0 0 0.1 0"/>
<feBlend mode="normal" in2="BackgroundImageFix" result="effect1_dropShadow_5325_18291"/>
<feBlend mode="normal" in="SourceGraphic" in2="effect1_dropShadow_5325_18291" result="shape"/>
</filter>
</defs>
</svg>
