<svg width="28" height="28" viewBox="0 0 28 28" fill="none" xmlns="http://www.w3.org/2000/svg">
<path fill-rule="evenodd" clip-rule="evenodd" d="M12.8756 3.38321C13.1709 3.15369 13.533 3.02037 13.9105 3.00215C14.2881 2.98394 14.662 3.08175 14.9792 3.28172L15.1244 3.38321L20.2988 7.4077C20.5513 7.60385 20.7604 7.84754 20.9136 8.12416C21.0668 8.40079 21.1609 8.70464 21.1904 9.0175L21.2 9.22864V22.667H22.4V12.7515C22.4 12.615 22.4492 12.4828 22.5391 12.3779C22.629 12.2731 22.7539 12.2022 22.892 12.1776L23 12.1683H23.6C24.2055 12.1681 24.7887 12.3904 25.2327 12.7906C25.6766 13.1908 25.9486 13.7394 25.994 14.3263L26 14.5013V23.7168C25.9999 24.0328 25.8798 24.3377 25.6628 24.5729C25.4458 24.8082 25.1471 24.9574 24.824 24.9918L24.68 25H3.32C2.99473 25.0002 2.68085 24.8836 2.43858 24.6726C2.1963 24.4616 2.04268 24.1711 2.0072 23.8568L2 23.7168V14.5013C1.99981 13.9127 2.22849 13.3458 2.6402 12.9142C3.05191 12.4826 3.61621 12.2183 4.22 12.1741L4.4 12.1683H5C5.14043 12.1682 5.27643 12.2161 5.38431 12.3035C5.49219 12.3909 5.56512 12.5123 5.5904 12.6465L5.6 12.7515V22.667H6.8V9.22864C6.79998 8.91448 6.86523 8.60355 6.99184 8.3145C7.11845 8.02545 7.30381 7.76423 7.5368 7.54652L7.7012 7.40654L12.8756 3.38321ZM14 11.0006C13.3635 11.0006 12.753 11.2464 12.3029 11.6839C11.8529 12.1214 11.6 12.7149 11.6 13.3336C11.6 13.9524 11.8529 14.5458 12.3029 14.9833C12.753 15.4209 13.3635 15.6667 14 15.6667C14.6365 15.6667 15.247 15.4209 15.6971 14.9833C16.1471 14.5458 16.4 13.9524 16.4 13.3336C16.4 12.7149 16.1471 12.1214 15.6971 11.6839C15.247 11.2464 14.6365 11.0006 14 11.0006Z" fill="#898989"/>
</svg>
