<svg width="158" height="34" viewBox="0 0 158 34" fill="none" xmlns="http://www.w3.org/2000/svg">
<rect width="158" height="34" rx="4" fill="#81D7D4"/>
<path d="M13.2578 23V10.2734H18.25C21.1504 10.2734 22.8027 12.0488 22.8027 14.5625C22.8027 17.1113 21.1152 18.8516 18.1797 18.8516H15.8945V23H13.2578ZM15.8945 16.7246H17.7578C19.3223 16.7246 20.0781 15.8457 20.0781 14.5625C20.0781 13.2969 19.3223 12.4355 17.7578 12.4355H15.8945V16.7246ZM24.4727 23V10.2734H29.4648C32.3652 10.2734 34.0176 11.9082 34.0176 14.4219C34.0176 16.1621 33.2178 17.4277 31.7676 18.043L34.4746 23H31.5566L29.1309 18.4824H27.1094V23H24.4727ZM27.1094 16.3379H28.9727C30.5371 16.3379 31.293 15.6875 31.293 14.4219C31.293 13.1387 30.5371 12.4355 28.9727 12.4355H27.1094V16.3379ZM47.5 16.6367C47.5 20.7852 44.916 23.1758 41.5586 23.1758C38.166 23.1758 35.5996 20.7676 35.5996 16.6367C35.5996 12.4883 38.166 10.0977 41.5586 10.0977C44.916 10.0977 47.5 12.4883 47.5 16.6367ZM44.8105 16.6367C44.8105 13.9121 43.5273 12.4355 41.5586 12.4355C39.5898 12.4355 38.2891 13.9121 38.2891 16.6367C38.2891 19.3613 39.5898 20.8379 41.5586 20.8379C43.5273 20.8379 44.8105 19.3613 44.8105 16.6367ZM63.4434 20.9961V22.8418H48.8008V20.9961H54.9707V18.5879H50.4883V13.209H59.541V11.4512H50.4707V9.6582H61.7559V14.9668H52.7383V16.7598H62.125V18.5879H57.2031V20.9961H63.4434ZM72.9707 9.30664C75.0186 9.28906 76.6445 10.458 77.084 12.1719H79.7559V8.62109H81.9883V17.2168H79.7559V13.9648H77.1016C76.6797 15.7227 75.0361 16.918 72.9707 16.918C70.5098 16.918 68.6992 15.3184 68.7168 13.0859C68.6992 10.8887 70.5098 9.28906 72.9707 9.30664ZM72.9707 11.1699C71.7227 11.1523 70.8262 11.8906 70.8438 13.0859C70.8262 14.2812 71.7227 15.0371 72.9707 15.0371C74.1836 15.0371 75.0625 14.2812 75.0625 13.0859C75.0625 11.8906 74.1836 11.1523 72.9707 11.1699ZM73.5332 17.9199V19.4668H79.7559V17.9199H81.9883V24.4414H71.3184V17.9199H73.5332ZM73.5332 22.6309H79.7559V21.1895H73.5332V22.6309ZM96.8594 10.0977V12.0137C96.8594 14.2109 96.8594 16.3906 96.2793 19.6953L94.0117 19.502C94.6094 16.4258 94.6094 14.1406 94.627 12.0137V11.8906H85.5742V10.0977H96.8594ZM98.6523 20.6797V22.5254H84.0625V20.6797H98.6523ZM105.736 10.2207V16.2852H102.221V19.0098C103.776 18.9922 105.253 18.9219 106.914 18.6055L107.107 20.4336C105.016 20.8203 103.223 20.8555 101.201 20.873H100.076V14.5098H103.574V11.9961H100.059V10.2207H105.736ZM113.453 8.62109V24.6172H111.326V8.62109H113.453ZM110.131 8.91992V23.8438H108.039V15.8984H106.404V14.0879H108.039V8.91992H110.131ZM128.57 8.62109V24.6523H126.303V8.62109H128.57ZM119.887 9.74609C122.295 9.74609 124.088 11.9609 124.088 15.4414C124.088 18.957 122.295 21.1543 119.887 21.1543C117.426 21.1543 115.633 18.957 115.65 15.4414C115.633 11.9609 117.426 9.74609 119.887 9.74609ZM119.887 11.7676C118.639 11.7676 117.812 13.0684 117.812 15.4414C117.812 17.832 118.639 19.1152 119.887 19.1152C121.1 19.1152 121.926 17.832 121.926 15.4414C121.926 13.0684 121.1 11.7676 119.887 11.7676ZM143.775 16.0215V17.8145H132.455V9.95703H143.652V11.7676H134.67V16.0215H143.775ZM145.375 20.8203V22.666H130.732V20.8203H145.375Z" fill="white"/>
</svg>
