<svg width="24" height="24" viewBox="0 0 24 24" fill="none" xmlns="http://www.w3.org/2000/svg">
<circle cx="12" cy="12" r="12" fill="#E7E7E7"/>
<path fill-rule="evenodd" clip-rule="evenodd" d="M11.9993 3.66699C16.6018 3.66699 20.3327 7.39783 20.3327 12.0003C20.3327 16.6028 16.6018 20.3337 11.9993 20.3337C7.39685 20.3337 3.66602 16.6028 3.66602 12.0003C3.66602 7.39783 7.39685 3.66699 11.9993 3.66699ZM13.2343 16.117C12.4124 16.1849 11.5863 16.1849 10.7643 16.117C10.8421 16.4481 10.9282 16.7542 11.0227 17.0353C11.2318 17.6645 11.4643 18.1128 11.681 18.387C11.7868 18.522 11.8727 18.5937 11.931 18.6287L11.9735 18.652L11.9985 18.6587L12.0252 18.652L12.0677 18.6295C12.1645 18.5642 12.2491 18.4824 12.3177 18.3878C12.5343 18.1128 12.7668 17.6645 12.976 17.0353C13.0705 16.7542 13.1566 16.4481 13.2343 16.117ZM6.00518 14.9212C6.76222 16.4702 8.08797 17.6673 9.70602 18.2628C9.60819 18.0332 9.51978 17.7997 9.44102 17.5628C9.25965 17.0082 9.1149 16.4423 9.00768 15.8687C7.97638 15.659 6.97001 15.3414 6.00518 14.9212ZM17.9943 14.9212C17.0402 15.3378 16.0352 15.657 14.9902 15.8687C14.883 16.4425 14.7382 17.0088 14.5568 17.5637C14.4768 17.8064 14.3885 18.0392 14.2918 18.262C15.9105 17.6668 17.2369 16.4697 17.9943 14.9203V14.9212ZM13.646 11.0595C12.553 11.2047 11.4457 11.2047 10.3527 11.0595C10.3051 12.1789 10.3443 13.3003 10.4702 14.4137C11.4863 14.5295 12.5124 14.5295 13.5285 14.4137C13.621 13.6126 13.6669 12.8068 13.666 12.0003C13.666 11.6803 13.6593 11.3664 13.646 11.0587V11.0595ZM5.80602 9.52699C5.39933 10.5461 5.25048 11.6499 5.37268 12.7403C6.43446 13.3484 7.57488 13.8074 8.76185 14.1045C8.65972 12.9816 8.63911 11.8528 8.70018 10.727C7.68895 10.45 6.71659 10.0468 5.80602 9.52699ZM18.1927 9.52699C17.2821 10.0468 16.3097 10.45 15.2985 10.727C15.3596 11.8528 15.339 12.9816 15.2368 14.1045C16.4235 13.8074 17.5637 13.3483 18.6252 12.7403C18.7472 11.6501 18.5984 10.5467 18.1918 9.52783L18.1927 9.52699ZM12.0127 5.34366L12.0035 5.34199L11.9868 5.34449L11.9552 5.35699C11.8482 5.42413 11.7549 5.51094 11.6802 5.61283C11.4635 5.88783 11.2318 6.33616 11.0218 6.96449C10.7968 7.63783 10.6152 8.46449 10.4943 9.39699C11.4928 9.53706 12.5059 9.53706 13.5043 9.39699C13.3835 8.46366 13.201 7.63783 12.9768 6.96449C12.7668 6.33616 12.5352 5.88699 12.3185 5.61283C12.2499 5.51829 12.1653 5.4365 12.0685 5.37116L12.0127 5.34366ZM9.70602 5.73866C8.46757 6.19264 7.39163 7.0038 6.61435 8.06949C7.31685 8.47283 8.06935 8.79949 8.86018 9.03866C8.99352 8.06866 9.19102 7.18616 9.44102 6.43699C9.52157 6.19366 9.6099 5.96088 9.70602 5.73866ZM14.2927 5.73866C14.3882 5.96088 14.4766 6.19366 14.5577 6.43699C14.8077 7.18699 15.0052 8.06866 15.1385 9.03866C15.9213 8.80142 16.6747 8.4763 17.3843 8.06949C16.6071 7.0038 15.5311 6.19264 14.2927 5.73866Z" fill="#BBBBBB"/>
</svg>
