<svg width="24" height="24" viewBox="0 0 24 24" fill="none" xmlns="http://www.w3.org/2000/svg">
<path d="M6.16763 19.006C5.93669 19.006 5.71094 18.9375 5.51892 18.8091C5.32691 18.6808 5.17726 18.4984 5.08889 18.2851C5.00051 18.0717 4.97738 17.8369 5.02243 17.6104C5.06747 17.3839 5.17866 17.1758 5.34194 17.0125L17.0208 5.33388C17.241 5.12114 17.536 5.00343 17.8423 5.00609C18.1485 5.00875 18.4414 5.13157 18.6579 5.3481C18.8745 5.56463 18.9973 5.85755 19 6.16376C19.0026 6.46997 18.8849 6.76497 18.6722 6.98523L6.99333 18.6639C6.77436 18.8829 6.47735 19.006 6.16763 19.006Z" fill="#898989"/>
<path d="M17.8324 19.006C17.5226 19.006 17.2256 18.8829 17.0067 18.6639L5.32784 6.98523C5.1151 6.76497 4.99738 6.46997 5.00004 6.16376C5.00271 5.85755 5.12553 5.56463 5.34207 5.3481C5.5586 5.13157 5.85152 5.00875 6.15774 5.00609C6.46395 5.00343 6.75896 5.12114 6.97923 5.33388L18.6581 17.0125C18.8213 17.1758 18.9325 17.3839 18.9776 17.6104C19.0226 17.8369 18.9995 18.0717 18.9111 18.2851C18.8227 18.4984 18.6731 18.6808 18.4811 18.8091C18.2891 18.9375 18.0633 19.006 17.8324 19.006Z" fill="#898989"/>
</svg>
